<svg xmlns="http://www.w3.org/2000/svg" xmlns:xlink="http://www.w3.org/1999/xlink" width="118.168" height="65.455" viewBox="0 0 118.168 65.455"><defs><clipPath id="a"><rect width="118.168" height="65.455" transform="translate(0 0)" fill="none"/></clipPath></defs><g clip-path="url(#a)"><path d="M104.13,38.4a4.744,4.744,0,0,0-.449-1.075,3.36,3.36,0,0,0-.753-.868,8.834,8.834,0,0,0-.879-.667,6.906,6.906,0,0,0-1.09-.534c-.47-.19-.843-.329-1.116-.419s-.67-.219-1.2-.384a9.666,9.666,0,0,1-2.614-1.1,1.588,1.588,0,0,1-.681-1.326,1.519,1.519,0,0,1,.61-1.248,2.605,2.605,0,0,1,1.671-.484,3.454,3.454,0,0,1,3.313,2.226l2.872-1.657a6.876,6.876,0,0,0-2.489-2.858,6.668,6.668,0,0,0-3.7-1.029,6.052,6.052,0,0,0-4.023,1.4,4.639,4.639,0,0,0-1.672,3.751,4.837,4.837,0,0,0,.42,2.079,3.78,3.78,0,0,0,1.226,1.471,8.107,8.107,0,0,0,1.611.929,17.671,17.671,0,0,0,1.965.7,12.658,12.658,0,0,1,2.922,1.1,1.634,1.634,0,0,1,.147,2.736,3.437,3.437,0,0,1-2.1.52,3.9,3.9,0,0,1-3.987-2.65L91.22,40.715a6.14,6.14,0,0,0,2.474,3.13A7.732,7.732,0,0,0,98.026,45a7.014,7.014,0,0,0,4.543-1.41,4.648,4.648,0,0,0,1.744-3.812,4.907,4.907,0,0,0-.183-1.373" transform="translate(-4.169 -1.233)" fill="#fff"/><path d="M110.468,27.341v3.267h4.651V44.669h3.417V30.607h4.68V27.341Z" transform="translate(-5.049 -1.249)" fill="#fff"/><path d="M11.3,35.121A19.806,19.806,0,0,1,45.217,21.213l3.331-2.965A24.275,24.275,0,1,0,31.115,59.405H52.944a30.726,30.726,0,0,0,3.647-3.347c.338-.365.663-.739.982-1.117H31.115A19.842,19.842,0,0,1,11.3,35.121" transform="translate(-0.312 -0.495)" fill="#fff"/><path d="M18.158,35.412a13.259,13.259,0,0,1,22.463-9.56l3.671-3.267a18.189,18.189,0,1,0-12.886,31.02H59.149A30.564,30.564,0,0,0,62.1,48.687H31.433A13.29,13.29,0,0,1,18.158,35.412" transform="translate(-0.604 -0.787)" fill="#fff"/><path d="M4.893,34.808A25.887,25.887,0,0,1,49.452,16.853l3.69-3.284A30.819,30.819,0,1,0,30.83,65.637h2.843a30.866,30.866,0,0,0,16.665-4.917H30.8A25.94,25.94,0,0,1,4.893,34.808" transform="translate(0 -0.182)" fill="#fff"/><path d="M35.539,40.52a4.8,4.8,0,0,1-.706.479,5.513,5.513,0,0,1-2.686.656,5.436,5.436,0,0,1-4.072-1.584,5.6,5.6,0,0,1-1.547-4.084,5.636,5.636,0,0,1,1.547-4.109,5.931,5.931,0,0,1,6.746-.929,4.9,4.9,0,0,1,.592.387l2.53-2.251a8.538,8.538,0,0,0-1.451-1.008,8.839,8.839,0,0,0-4.345-1.1,8.689,8.689,0,0,0-6.461,2.587,8.788,8.788,0,0,0-2.549,6.423A8.8,8.8,0,0,0,25.686,42.4,8.669,8.669,0,0,0,32.147,45,8.808,8.808,0,0,0,36.5,43.9a8.459,8.459,0,0,0,1.569-1.121Z" transform="translate(-1.057 -1.233)" fill="#fff"/><path d="M4.918,0H0V24.421a32.4,32.4,0,0,1,4.919-9.348Z" transform="translate(0 0)" fill="#fff"/><path d="M18.159,0H13.241V7.74a32.448,32.448,0,0,1,4.918-2.749Z" transform="translate(-0.605 0)" fill="#fff"/><path d="M11.322,8.921V0H6.859V13.091a32.794,32.794,0,0,1,4.463-4.17" transform="translate(-0.313 0)" fill="#fff"/><path d="M45.932,68.354h74.333V63.436H55.475l-2.15,1.383a32.709,32.709,0,0,1-7.393,3.537" transform="translate(-2.099 -2.899)" fill="#fff"/><path d="M67.621,51.9l.416,1.18h-.81Z" transform="translate(-3.072 -2.372)" fill="#fff"/><path d="M75.819,51.82,75.425,53h.814Zm0,0L75.425,53h.814Zm0,0L75.425,53h.814Zm0,0L75.425,53h.814Zm0,0L75.425,53h.814Zm14.144.108a.966.966,0,0,0-1.33,0,.932.932,0,0,0-.265.681.919.919,0,0,0,.265.678.966.966,0,0,0,1.33,0,.919.919,0,0,0,.265-.678.932.932,0,0,0-.265-.681m0,0a.966.966,0,0,0-1.33,0,.932.932,0,0,0-.265.681.919.919,0,0,0,.265.678.966.966,0,0,0,1.33,0,.919.919,0,0,0,.265-.678.932.932,0,0,0-.265-.681M75.819,51.82,75.425,53h.814Zm0,0L75.425,53h.814Zm14.144.108a.966.966,0,0,0-1.33,0,.932.932,0,0,0-.265.681.919.919,0,0,0,.265.678.966.966,0,0,0,1.33,0,.919.919,0,0,0,.265-.678.932.932,0,0,0-.265-.681m2.789-.108a.359.359,0,0,0-.276-.122h-.584v.854h.584a.359.359,0,0,0,.276-.126.429.429,0,0,0,.115-.3.416.416,0,0,0-.115-.3m0,0a.359.359,0,0,0-.276-.122h-.584v.854h.584a.359.359,0,0,0,.276-.126.429.429,0,0,0,.115-.3.416.416,0,0,0-.115-.3m-2.789.108a.966.966,0,0,0-1.33,0,.932.932,0,0,0-.265.681.919.919,0,0,0,.265.678.966.966,0,0,0,1.33,0,.919.919,0,0,0,.265-.678.932.932,0,0,0-.265-.681M75.819,51.82,75.425,53h.814Zm0,0L75.425,53h.814Zm14.144.108a.966.966,0,0,0-1.33,0,.932.932,0,0,0-.265.681.919.919,0,0,0,.265.678.966.966,0,0,0,1.33,0,.919.919,0,0,0,.265-.678.932.932,0,0,0-.265-.681m2.789-.108a.359.359,0,0,0-.276-.122h-.584v.854h.584a.359.359,0,0,0,.276-.126.429.429,0,0,0,.115-.3.416.416,0,0,0-.115-.3m9.776.108a.966.966,0,0,0-1.33,0,.917.917,0,0,0-.265.681.941.941,0,0,0,1.6.678.919.919,0,0,0,.265-.678.932.932,0,0,0-.265-.681m0,0a.966.966,0,0,0-1.33,0,.917.917,0,0,0-.265.681.941.941,0,0,0,1.6.678.919.919,0,0,0,.265-.678.932.932,0,0,0-.265-.681m-9.776-.108a.359.359,0,0,0-.276-.122h-.584v.854h.584a.359.359,0,0,0,.276-.126.429.429,0,0,0,.115-.3.416.416,0,0,0-.115-.3m-2.789.108a.966.966,0,0,0-1.33,0,.932.932,0,0,0-.265.681.919.919,0,0,0,.265.678.966.966,0,0,0,1.33,0,.919.919,0,0,0,.265-.678.932.932,0,0,0-.265-.681M75.819,51.82,75.425,53h.814Zm0,0L75.425,53h.814Zm14.144.108a.966.966,0,0,0-1.33,0,.932.932,0,0,0-.265.681.919.919,0,0,0,.265.678.966.966,0,0,0,1.33,0,.919.919,0,0,0,.265-.678.932.932,0,0,0-.265-.681m2.789-.108a.359.359,0,0,0-.276-.122h-.584v.854h.584a.359.359,0,0,0,.276-.126.429.429,0,0,0,.115-.3.416.416,0,0,0-.115-.3m9.776.108a.966.966,0,0,0-1.33,0,.917.917,0,0,0-.265.681.941.941,0,0,0,1.6.678.919.919,0,0,0,.265-.678.932.932,0,0,0-.265-.681m0,0a.966.966,0,0,0-1.33,0,.917.917,0,0,0-.265.681.941.941,0,0,0,1.6.678.919.919,0,0,0,.265-.678.932.932,0,0,0-.265-.681m-9.776-.108a.359.359,0,0,0-.276-.122h-.584v.854h.584a.359.359,0,0,0,.276-.126.429.429,0,0,0,.115-.3.416.416,0,0,0-.115-.3m-2.789.108a.966.966,0,0,0-1.33,0,.932.932,0,0,0-.265.681.919.919,0,0,0,.265.678.966.966,0,0,0,1.33,0,.919.919,0,0,0,.265-.678.932.932,0,0,0-.265-.681M75.819,51.82,75.425,53h.814Zm0,0L75.425,53h.814Zm14.144.108a.966.966,0,0,0-1.33,0,.932.932,0,0,0-.265.681.919.919,0,0,0,.265.678.966.966,0,0,0,1.33,0,.919.919,0,0,0,.265-.678.932.932,0,0,0-.265-.681m2.789-.108a.359.359,0,0,0-.276-.122h-.584v.854h.584a.359.359,0,0,0,.276-.126.429.429,0,0,0,.115-.3.416.416,0,0,0-.115-.3m9.776.108a.966.966,0,0,0-1.33,0,.917.917,0,0,0-.265.681.941.941,0,0,0,1.6.678.919.919,0,0,0,.265-.678.932.932,0,0,0-.265-.681m10.357,0a.963.963,0,0,0-1.327,0,.923.923,0,0,0-.268.681.91.91,0,0,0,.268.678.933.933,0,0,0,1.6-.678.92.92,0,0,0-.269-.681m0,0a.963.963,0,0,0-1.327,0,.923.923,0,0,0-.268.681.91.91,0,0,0,.268.678.933.933,0,0,0,1.6-.678.92.92,0,0,0-.269-.681m-10.357,0a.966.966,0,0,0-1.33,0,.917.917,0,0,0-.265.681.941.941,0,0,0,1.6.678.919.919,0,0,0,.265-.678.932.932,0,0,0-.265-.681m-9.776-.108a.359.359,0,0,0-.276-.122h-.584v.854h.584a.359.359,0,0,0,.276-.126.429.429,0,0,0,.115-.3.416.416,0,0,0-.115-.3m-2.789.108a.966.966,0,0,0-1.33,0,.932.932,0,0,0-.265.681.919.919,0,0,0,.265.678.966.966,0,0,0,1.33,0,.919.919,0,0,0,.265-.678.932.932,0,0,0-.265-.681M75.819,51.82,75.425,53h.814Zm-9.6-1.624-.338.71a32.79,32.79,0,0,1-2.416,4.188h.233l-.014.018h57.388V50.2Zm2.022,3.858-.186-.52H66.868l-.172.52H66.08l1.011-2.887H67.8l1.018,2.887Zm2.679-2.345h-.778v2.345h-.571V51.71h-.775v-.542h2.123Zm3.267,2.345H72.513V51.167h.571v2.342h1.1Zm2.425,0-.183-.52H75.238l-.172.52h-.614l1.008-2.887h.707l1.018,2.887Zm2.581,0L78.157,52.7v1.355H77.59V51.167h.567v1.269l.99-1.269H79.8l-1.069,1.4,1.112,1.488Zm2.844,0H80.248V51.167h1.768v.542h-1.2v.616h1.095v.534H80.818v.649h1.216Zm2.266-.179a1.155,1.155,0,0,1-.757.237,1.273,1.273,0,0,1-.721-.194,1.017,1.017,0,0,1-.412-.52l.488-.286a.646.646,0,0,0,.663.441.584.584,0,0,0,.351-.086.272.272,0,0,0-.025-.455,2.047,2.047,0,0,0-.488-.183,3.062,3.062,0,0,1-.326-.115,1.5,1.5,0,0,1-.269-.155.627.627,0,0,1-.2-.247.8.8,0,0,1-.072-.345.783.783,0,0,1,.28-.628,1.019,1.019,0,0,1,.671-.233,1.111,1.111,0,0,1,.616.173,1.137,1.137,0,0,1,.412.476l-.477.277a.573.573,0,0,0-.552-.369.441.441,0,0,0-.28.078.25.25,0,0,0-.1.208.271.271,0,0,0,.115.222,1.721,1.721,0,0,0,.433.183c.09.025.155.047.2.065s.108.035.186.068a1.2,1.2,0,0,1,.179.09,1.518,1.518,0,0,1,.147.111.579.579,0,0,1,.126.144.931.931,0,0,1,.075.179.806.806,0,0,1,.029.229.776.776,0,0,1-.291.635m2.974.179h-.567v-1.2H85.634v1.2h-.567V51.167h.567v1.144h1.073V51.167h.567Zm3.087-.38a1.516,1.516,0,1,1,.437-1.065,1.448,1.448,0,0,1-.437,1.065m2.546.38-.585-1h-.429v1h-.571V51.167h1.155a.955.955,0,0,1,.961.954.888.888,0,0,1-.151.5,1,1,0,0,1-.4.345l.638,1.09Zm2.858,0H93.979V51.167h1.764v.542h-1.2v.616h1.094v.534H94.545v.649h1.22Zm2.367-.763a.906.906,0,0,0,.678.261.933.933,0,0,0,.449-.108.741.741,0,0,0,.305-.3l.491.283a1.37,1.37,0,0,1-.516.5,1.538,1.538,0,0,1-1.8-.247,1.562,1.562,0,0,1,0-2.138,1.528,1.528,0,0,1,1.8-.247,1.344,1.344,0,0,1,.52.494l-.491.283a.786.786,0,0,0-.305-.3.933.933,0,0,0-.449-.107.906.906,0,0,0-.678.261,1.035,1.035,0,0,0,0,1.367m4.794.384a1.514,1.514,0,1,1,.438-1.065,1.45,1.45,0,0,1-.438,1.065m3.788.38h-.567V52.179l-.814,1.341-.065,0-.81-1.338v1.869h-.571V51.167h.585l.828,1.363.825-1.363h.589Zm3.481,0h-.562V52.179l-.815,1.341-.068,0-.81-1.338v1.869h-.567V51.167h.585l.828,1.363.821-1.363h.588Zm3.092-.38a1.516,1.516,0,1,1,.437-1.065,1.453,1.453,0,0,1-.437,1.065m3.2.38h-.434l-1.237-1.768v1.768h-.567V51.167h.43l1.237,1.757V51.167h.571Zm2.356-.179a1.155,1.155,0,0,1-.757.237,1.268,1.268,0,0,1-.721-.194,1.017,1.017,0,0,1-.412-.52l.488-.286a.647.647,0,0,0,.663.441.585.585,0,0,0,.352-.086.272.272,0,0,0-.026-.455,2.014,2.014,0,0,0-.488-.183,3.062,3.062,0,0,1-.326-.115,1.488,1.488,0,0,1-.268-.155.629.629,0,0,1-.205-.247.813.813,0,0,1-.072-.345.783.783,0,0,1,.28-.628,1.023,1.023,0,0,1,.671-.233,1.109,1.109,0,0,1,.616.173,1.139,1.139,0,0,1,.413.476l-.477.277a.574.574,0,0,0-.553-.369.441.441,0,0,0-.28.078.252.252,0,0,0-.1.208.27.27,0,0,0,.115.222,1.716,1.716,0,0,0,.434.183c.086.025.154.047.2.065s.108.035.183.068a1.116,1.116,0,0,1,.182.09,1.412,1.412,0,0,1,.147.111.56.56,0,0,1,.126.144.93.93,0,0,1,.075.179.806.806,0,0,1,.029.229.776.776,0,0,1-.29.635m-6.62-2.212a.9.9,0,0,0-.664.265.923.923,0,0,0-.268.681.91.91,0,0,0,.268.678.933.933,0,0,0,1.6-.678.92.92,0,0,0-.269-.681.894.894,0,0,0-.663-.265m-10.361,0a.9.9,0,0,0-.663.265.917.917,0,0,0-.265.681.941.941,0,0,0,1.6.678.919.919,0,0,0,.265-.678.932.932,0,0,0-.265-.681.9.9,0,0,0-.667-.265m-9.385.035h-.584v.854h.584a.359.359,0,0,0,.276-.126.429.429,0,0,0,.115-.3.416.416,0,0,0-.115-.3.359.359,0,0,0-.276-.122M89.3,51.663a.9.9,0,0,0-.667.265.932.932,0,0,0-.265.681.919.919,0,0,0,.265.678.966.966,0,0,0,1.33,0,.919.919,0,0,0,.265-.678.932.932,0,0,0-.265-.681.9.9,0,0,0-.663-.265M75.425,53h.814l-.42-1.18Zm.394-1.18L75.425,53h.814Zm14.144.108a.966.966,0,0,0-1.33,0,.932.932,0,0,0-.265.681.919.919,0,0,0,.265.678.966.966,0,0,0,1.33,0,.919.919,0,0,0,.265-.678.932.932,0,0,0-.265-.681m2.789-.108a.359.359,0,0,0-.276-.122h-.584v.854h.584a.359.359,0,0,0,.276-.126.429.429,0,0,0,.115-.3.416.416,0,0,0-.115-.3m9.776.108a.966.966,0,0,0-1.33,0,.917.917,0,0,0-.265.681.941.941,0,0,0,1.6.678.919.919,0,0,0,.265-.678.932.932,0,0,0-.265-.681m10.357,0a.963.963,0,0,0-1.327,0,.923.923,0,0,0-.268.681.91.91,0,0,0,.268.678.933.933,0,0,0,1.6-.678.92.92,0,0,0-.269-.681m0,0a.963.963,0,0,0-1.327,0,.923.923,0,0,0-.268.681.91.91,0,0,0,.268.678.933.933,0,0,0,1.6-.678.92.92,0,0,0-.269-.681m-10.357,0a.966.966,0,0,0-1.33,0,.917.917,0,0,0-.265.681.941.941,0,0,0,1.6.678.919.919,0,0,0,.265-.678.932.932,0,0,0-.265-.681m-9.776-.108a.359.359,0,0,0-.276-.122h-.584v.854h.584a.359.359,0,0,0,.276-.126.429.429,0,0,0,.115-.3.416.416,0,0,0-.115-.3m-2.789.108a.966.966,0,0,0-1.33,0,.932.932,0,0,0-.265.681.919.919,0,0,0,.265.678.966.966,0,0,0,1.33,0,.919.919,0,0,0,.265-.678.932.932,0,0,0-.265-.681M75.819,51.82,75.425,53h.814Zm0,0L75.425,53h.814Zm14.144.108a.966.966,0,0,0-1.33,0,.932.932,0,0,0-.265.681.919.919,0,0,0,.265.678.966.966,0,0,0,1.33,0,.919.919,0,0,0,.265-.678.932.932,0,0,0-.265-.681m2.789-.108a.359.359,0,0,0-.276-.122h-.584v.854h.584a.359.359,0,0,0,.276-.126.429.429,0,0,0,.115-.3.416.416,0,0,0-.115-.3m9.776.108a.966.966,0,0,0-1.33,0,.917.917,0,0,0-.265.681.941.941,0,0,0,1.6.678.919.919,0,0,0,.265-.678.932.932,0,0,0-.265-.681m0,0a.966.966,0,0,0-1.33,0,.917.917,0,0,0-.265.681.941.941,0,0,0,1.6.678.919.919,0,0,0,.265-.678.932.932,0,0,0-.265-.681m-9.776-.108a.359.359,0,0,0-.276-.122h-.584v.854h.584a.359.359,0,0,0,.276-.126.429.429,0,0,0,.115-.3.416.416,0,0,0-.115-.3m-2.789.108a.966.966,0,0,0-1.33,0,.932.932,0,0,0-.265.681.919.919,0,0,0,.265.678.966.966,0,0,0,1.33,0,.919.919,0,0,0,.265-.678.932.932,0,0,0-.265-.681M75.819,51.82,75.425,53h.814Zm0,0L75.425,53h.814Zm14.144.108a.966.966,0,0,0-1.33,0,.932.932,0,0,0-.265.681.919.919,0,0,0,.265.678.966.966,0,0,0,1.33,0,.919.919,0,0,0,.265-.678.932.932,0,0,0-.265-.681m2.789-.108a.359.359,0,0,0-.276-.122h-.584v.854h.584a.359.359,0,0,0,.276-.126.429.429,0,0,0,.115-.3.416.416,0,0,0-.115-.3m0,0a.359.359,0,0,0-.276-.122h-.584v.854h.584a.359.359,0,0,0,.276-.126.429.429,0,0,0,.115-.3.416.416,0,0,0-.115-.3m-2.789.108a.966.966,0,0,0-1.33,0,.932.932,0,0,0-.265.681.919.919,0,0,0,.265.678.966.966,0,0,0,1.33,0,.919.919,0,0,0,.265-.678.932.932,0,0,0-.265-.681M75.819,51.82,75.425,53h.814Zm0,0L75.425,53h.814Zm14.144.108a.966.966,0,0,0-1.33,0,.932.932,0,0,0-.265.681.919.919,0,0,0,.265.678.966.966,0,0,0,1.33,0,.919.919,0,0,0,.265-.678.932.932,0,0,0-.265-.681m2.789-.108a.359.359,0,0,0-.276-.122h-.584v.854h.584a.359.359,0,0,0,.276-.126.429.429,0,0,0,.115-.3.416.416,0,0,0-.115-.3m0,0a.359.359,0,0,0-.276-.122h-.584v.854h.584a.359.359,0,0,0,.276-.126.429.429,0,0,0,.115-.3.416.416,0,0,0-.115-.3m-2.789.108a.966.966,0,0,0-1.33,0,.932.932,0,0,0-.265.681.919.919,0,0,0,.265.678.966.966,0,0,0,1.33,0,.919.919,0,0,0,.265-.678.932.932,0,0,0-.265-.681M75.819,51.82,75.425,53h.814Zm0,0L75.425,53h.814Zm0,0L75.425,53h.814Zm0,0L75.425,53h.814Zm0,0L75.425,53h.814Zm0,0L75.425,53h.814Zm0,0L75.425,53h.814Z" transform="translate(-2.9 -2.294)" fill="#fff"/><path d="M61.162,58.112c-.382.453-.71.826-1.033,1.175-.716.772-1.479,1.509-2.275,2.213h.722l-.027.017h62.261V57.054H62.054Z" transform="translate(-2.644 -2.607)" fill="#fff"/><path d="M78.717,27.341H74.482L68.418,44.669h3.689l1.04-3.121h7.118l1.1,3.121h3.464ZM74.259,38.357l2.377-7.083,2.5,7.083Z" transform="translate(-3.127 -1.249)" fill="#fff"/><path d="M59.512,29.587a8.993,8.993,0,0,0-15.374,6.4,9.025,9.025,0,0,0,15.374,6.4,9.122,9.122,0,0,0,0-12.8m-2.4,10.472a5.767,5.767,0,0,1-7.972,0,5.493,5.493,0,0,1-1.606-4.07A5.534,5.534,0,0,1,49.137,31.9a5.737,5.737,0,0,1,7.972,0,5.534,5.534,0,0,1,1.61,4.084,5.492,5.492,0,0,1-1.61,4.07" transform="translate(-2.017 -1.233)" fill="#fff"/></g></svg>