<?xml version="1.0" encoding="utf-8"?>
<!-- Generator: Adobe Illustrator 27.6.1, SVG Export Plug-In . SVG Version: 6.00 Build 0)  -->
<svg version="1.1" id="Layer_1" xmlns="http://www.w3.org/2000/svg" xmlns:xlink="http://www.w3.org/1999/xlink" x="0px" y="0px"
	 viewBox="0 0 118.2 65.5" style="enable-background:new 0 0 118.2 65.5;" xml:space="preserve">
<style type="text/css">
	.st0{fill:#FFFFFF;}
</style>
<g>
	<g>
		<path class="st0" d="M100,37.2c-0.1-0.4-0.3-0.7-0.4-1.1c-0.2-0.3-0.5-0.6-0.8-0.9c-0.3-0.2-0.6-0.5-0.9-0.7
			c-0.3-0.2-0.7-0.4-1.1-0.5c-0.5-0.2-0.8-0.3-1.1-0.4s-0.7-0.2-1.2-0.4c-0.9-0.2-1.8-0.6-2.6-1.1c-0.4-0.3-0.7-0.8-0.7-1.3
			c0-0.5,0.2-1,0.6-1.2c0.5-0.3,1.1-0.5,1.7-0.5c1.5,0,2.8,0.9,3.3,2.2l2.9-1.7c-0.5-1.2-1.4-2.2-2.5-2.9c-1.1-0.7-2.4-1.1-3.7-1
			c-1.5,0-2.9,0.5-4,1.4c-1.1,0.9-1.7,2.3-1.7,3.8c0,0.7,0.1,1.4,0.4,2.1c0.3,0.6,0.7,1.1,1.2,1.5c0.5,0.4,1,0.7,1.6,0.9
			c0.6,0.3,1.3,0.5,2,0.7c1,0.2,2,0.6,2.9,1.1c0.8,0.5,1.1,1.4,0.6,2.2c-0.1,0.2-0.3,0.4-0.5,0.5c-0.6,0.4-1.4,0.6-2.1,0.5
			c-1.8,0.1-3.4-1-4-2.7l-2.9,1.7c0.5,1.3,1.3,2.4,2.5,3.1c1.3,0.8,2.8,1.2,4.3,1.2c1.6,0.1,3.2-0.4,4.5-1.4
			c1.2-0.9,1.8-2.3,1.7-3.8C100.1,38.1,100.1,37.6,100,37.2"/>
		<path class="st0" d="M105.4,26.1v3.3h4.7v14.1h3.4V29.4h4.7v-3.3H105.4z"/>
		<path class="st0" d="M11,34.6c0-10.9,8.9-19.8,19.8-19.8c5.3,0,10.4,2.1,14.1,5.9l3.3-3c-9.3-9.6-24.7-9.9-34.3-0.6
			S4,41.9,13.3,51.5c4.6,4.7,10.9,7.4,17.5,7.4h21.8c1.3-1,2.5-2.1,3.6-3.3c0.3-0.4,0.7-0.7,1-1.1H30.8C19.9,54.4,11,45.6,11,34.6"
			/>
		<path class="st0" d="M17.6,34.6c0-7.3,5.9-13.3,13.2-13.3c3.4,0,6.7,1.3,9.2,3.7l3.7-3.3c-7.1-7.1-18.6-7.1-25.7-0.1
			s-7.1,18.6-0.1,25.7c3.4,3.4,8.1,5.4,12.9,5.4h27.7c1.1-1.5,2.1-3.2,3-4.9H30.8C23.5,47.9,17.6,42,17.6,34.6"/>
		<path class="st0" d="M4.9,34.6c0-14.3,11.6-25.9,25.9-25.9c7.1,0,13.8,2.9,18.7,8l3.7-3.3C41.4,1.1,21.9,0.6,9.6,12.3
			S-3.2,43.6,8.5,55.9c5.8,6.1,13.9,9.6,22.3,9.6h2.8c5.9,0,11.7-1.7,16.7-4.9H30.8C16.5,60.5,4.9,48.9,4.9,34.6"/>
		<path class="st0" d="M34.5,39.3c-0.2,0.2-0.5,0.3-0.7,0.5c-0.8,0.4-1.7,0.7-2.7,0.7c-1.5,0.1-3-0.5-4.1-1.6
			c-1-1.1-1.6-2.6-1.5-4.1c-0.1-1.5,0.5-3,1.5-4.1c1.8-1.7,4.5-2.1,6.7-0.9c0.2,0.1,0.4,0.2,0.6,0.4l2.5-2.3c-0.4-0.4-0.9-0.7-1.5-1
			c-1.3-0.7-2.8-1.1-4.3-1.1c-2.4-0.1-4.8,0.9-6.5,2.6c-1.7,1.7-2.6,4-2.5,6.4c-0.1,2.4,0.9,4.7,2.5,6.4c1.7,1.7,4,2.7,6.5,2.6
			c1.5,0,3-0.4,4.4-1.1c0.6-0.3,1.1-0.7,1.6-1.1L34.5,39.3z"/>
		<path class="st0" d="M4.9,0H0v24.4c1.1-3.4,2.8-6.5,4.9-9.3L4.9,0z"/>
		<path class="st0" d="M17.6,0h-4.9v7.7c1.6-1.1,3.2-2,4.9-2.7V0z"/>
		<path class="st0" d="M11,8.9V0H6.5v13.1C7.9,11.6,9.4,10.2,11,8.9"/>
		<path class="st0" d="M43.8,65.5h74.3v-4.9H53.4l-2.2,1.4C48.9,63.4,46.4,64.6,43.8,65.5"/>
		<path class="st0" d="M64.5,49.5l0.4,1.2h-0.8L64.5,49.5z"/>
		<path class="st0" d="M72.9,49.5l-0.4,1.2h0.8L72.9,49.5z M72.9,49.5l-0.4,1.2h0.8L72.9,49.5z M72.9,49.5l-0.4,1.2h0.8L72.9,49.5z
			 M72.9,49.5l-0.4,1.2h0.8L72.9,49.5z M72.9,49.5l-0.4,1.2h0.8L72.9,49.5z M87.1,49.6c-0.4-0.4-1-0.4-1.3,0
			c-0.2,0.2-0.3,0.4-0.3,0.7c0,0.3,0.1,0.5,0.3,0.7c0.4,0.4,1,0.4,1.3,0c0.2-0.2,0.3-0.4,0.3-0.7C87.3,50.1,87.2,49.8,87.1,49.6
			 M87.1,49.6c-0.4-0.4-1-0.4-1.3,0c-0.2,0.2-0.3,0.4-0.3,0.7c0,0.3,0.1,0.5,0.3,0.7c0.4,0.4,1,0.4,1.3,0c0.2-0.2,0.3-0.4,0.3-0.7
			C87.3,50.1,87.2,49.8,87.1,49.6 M72.9,49.5l-0.4,1.2h0.8L72.9,49.5z M72.9,49.5l-0.4,1.2h0.8L72.9,49.5z M87.1,49.6
			c-0.4-0.4-1-0.4-1.3,0c-0.2,0.2-0.3,0.4-0.3,0.7c0,0.3,0.1,0.5,0.3,0.7c0.4,0.4,1,0.4,1.3,0c0.2-0.2,0.3-0.4,0.3-0.7
			C87.3,50.1,87.2,49.8,87.1,49.6 M89.9,49.5c-0.1-0.1-0.2-0.1-0.3-0.1H89v0.9h0.6c0.1,0,0.2,0,0.3-0.1c0.1-0.1,0.1-0.2,0.1-0.3
			C90,49.7,89.9,49.6,89.9,49.5 M89.9,49.5c-0.1-0.1-0.2-0.1-0.3-0.1H89v0.9h0.6c0.1,0,0.2,0,0.3-0.1c0.1-0.1,0.1-0.2,0.1-0.3
			C90,49.7,89.9,49.6,89.9,49.5 M87.1,49.6c-0.4-0.4-1-0.4-1.3,0c-0.2,0.2-0.3,0.4-0.3,0.7c0,0.3,0.1,0.5,0.3,0.7
			c0.4,0.4,1,0.4,1.3,0c0.2-0.2,0.3-0.4,0.3-0.7C87.3,50.1,87.2,49.8,87.1,49.6 M72.9,49.5l-0.4,1.2h0.8L72.9,49.5z M72.9,49.5
			l-0.4,1.2h0.8L72.9,49.5z M87.1,49.6c-0.4-0.4-1-0.4-1.3,0c-0.2,0.2-0.3,0.4-0.3,0.7c0,0.3,0.1,0.5,0.3,0.7c0.4,0.4,1,0.4,1.3,0
			c0.2-0.2,0.3-0.4,0.3-0.7C87.3,50.1,87.2,49.8,87.1,49.6 M89.9,49.5c-0.1-0.1-0.2-0.1-0.3-0.1H89v0.9h0.6c0.1,0,0.2,0,0.3-0.1
			c0.1-0.1,0.1-0.2,0.1-0.3C90,49.7,89.9,49.6,89.9,49.5 M99.6,49.6c-0.4-0.4-1-0.4-1.3,0c-0.2,0.2-0.3,0.4-0.3,0.7
			c0,0.5,0.4,0.9,0.9,0.9c0.2,0,0.5-0.1,0.7-0.3c0.2-0.2,0.3-0.4,0.3-0.7C99.9,50.1,99.8,49.8,99.6,49.6 M99.6,49.6
			c-0.4-0.4-1-0.4-1.3,0c-0.2,0.2-0.3,0.4-0.3,0.7c0,0.5,0.4,0.9,0.9,0.9c0.2,0,0.5-0.1,0.7-0.3c0.2-0.2,0.3-0.4,0.3-0.7
			C99.9,50.1,99.8,49.8,99.6,49.6 M89.9,49.5c-0.1-0.1-0.2-0.1-0.3-0.1H89v0.9h0.6c0.1,0,0.2,0,0.3-0.1c0.1-0.1,0.1-0.2,0.1-0.3
			C90,49.7,89.9,49.6,89.9,49.5 M87.1,49.6c-0.4-0.4-1-0.4-1.3,0c-0.2,0.2-0.3,0.4-0.3,0.7c0,0.3,0.1,0.5,0.3,0.7
			c0.4,0.4,1,0.4,1.3,0c0.2-0.2,0.3-0.4,0.3-0.7C87.3,50.1,87.3,49.8,87.1,49.6 M72.9,49.5l-0.4,1.2h0.8L72.9,49.5z M72.9,49.5
			l-0.4,1.2h0.8L72.9,49.5z M87.1,49.6c-0.4-0.4-1-0.4-1.3,0c-0.2,0.2-0.3,0.4-0.3,0.7c0,0.3,0.1,0.5,0.3,0.7c0.4,0.4,1,0.4,1.3,0
			c0.2-0.2,0.3-0.4,0.3-0.7C87.3,50.1,87.2,49.8,87.1,49.6 M89.9,49.5c-0.1-0.1-0.2-0.1-0.3-0.1H89v0.9h0.6c0.1,0,0.2,0,0.3-0.1
			c0.1-0.1,0.1-0.2,0.1-0.3C90,49.7,89.9,49.6,89.9,49.5 M99.6,49.6c-0.4-0.4-1-0.4-1.3,0c-0.2,0.2-0.3,0.4-0.3,0.7
			c0,0.5,0.4,0.9,0.9,0.9c0.2,0,0.5-0.1,0.7-0.3c0.2-0.2,0.3-0.4,0.3-0.7C99.9,50.1,99.8,49.8,99.6,49.6 M99.6,49.6
			c-0.4-0.4-1-0.4-1.3,0c-0.2,0.2-0.3,0.4-0.3,0.7c0,0.5,0.4,0.9,0.9,0.9c0.2,0,0.5-0.1,0.7-0.3c0.2-0.2,0.3-0.4,0.3-0.7
			C99.9,50.1,99.8,49.8,99.6,49.6 M89.9,49.5c-0.1-0.1-0.2-0.1-0.3-0.1H89v0.9h0.6c0.1,0,0.2,0,0.3-0.1c0.1-0.1,0.1-0.2,0.1-0.3
			C90,49.7,89.9,49.6,89.9,49.5 M87.1,49.6c-0.4-0.4-1-0.4-1.3,0c-0.2,0.2-0.3,0.4-0.3,0.7c0,0.3,0.1,0.5,0.3,0.7
			c0.4,0.4,1,0.4,1.3,0c0.2-0.2,0.3-0.4,0.3-0.7C87.3,50.1,87.3,49.8,87.1,49.6 M72.9,49.5l-0.4,1.2h0.8L72.9,49.5z M72.9,49.5
			l-0.4,1.2h0.8L72.9,49.5z M87.1,49.6c-0.4-0.4-1-0.4-1.3,0c-0.2,0.2-0.3,0.4-0.3,0.7c0,0.3,0.1,0.5,0.3,0.7c0.4,0.4,1,0.4,1.3,0
			c0.2-0.2,0.3-0.4,0.3-0.7C87.3,50.1,87.2,49.8,87.1,49.6 M89.9,49.5c-0.1-0.1-0.2-0.1-0.3-0.1H89v0.9h0.6c0.1,0,0.2,0,0.3-0.1
			c0.1-0.1,0.1-0.2,0.1-0.3C90,49.7,89.9,49.6,89.9,49.5 M99.6,49.6c-0.4-0.4-1-0.4-1.3,0c-0.2,0.2-0.3,0.4-0.3,0.7
			c0,0.5,0.4,0.9,0.9,0.9c0.2,0,0.5-0.1,0.7-0.3c0.2-0.2,0.3-0.4,0.3-0.7C99.9,50.1,99.8,49.8,99.6,49.6 M110,49.6
			c-0.4-0.4-1-0.4-1.3,0c-0.2,0.2-0.3,0.4-0.3,0.7c0,0.3,0.1,0.5,0.3,0.7c0.4,0.4,1,0.4,1.3,0c0.2-0.2,0.3-0.4,0.3-0.7
			C110.3,50.1,110.2,49.8,110,49.6 M110,49.6c-0.4-0.4-1-0.4-1.3,0c-0.2,0.2-0.3,0.4-0.3,0.7c0,0.3,0.1,0.5,0.3,0.7
			c0.4,0.4,1,0.4,1.3,0c0.2-0.2,0.3-0.4,0.3-0.7C110.3,50.1,110.2,49.8,110,49.6 M99.6,49.6c-0.4-0.4-1-0.4-1.3,0
			c-0.2,0.2-0.3,0.4-0.3,0.7c0,0.5,0.4,0.9,0.9,0.9c0.2,0,0.5-0.1,0.7-0.3c0.2-0.2,0.3-0.4,0.3-0.7C99.9,50.1,99.8,49.8,99.6,49.6
			 M89.9,49.5c-0.1-0.1-0.2-0.1-0.3-0.1H89v0.9h0.6c0.1,0,0.2,0,0.3-0.1c0.1-0.1,0.1-0.2,0.1-0.3C90,49.7,89.9,49.6,89.9,49.5
			 M87.1,49.6c-0.4-0.4-1-0.4-1.3,0c-0.2,0.2-0.3,0.4-0.3,0.7c0,0.3,0.1,0.5,0.3,0.7c0.4,0.4,1,0.4,1.3,0c0.2-0.2,0.3-0.4,0.3-0.7
			C87.4,50.1,87.3,49.8,87.1,49.6 M72.9,49.5l-0.4,1.2h0.8L72.9,49.5z M63.3,47.9L63,48.6c-0.7,1.5-1.5,2.9-2.4,4.2h0.2l0,0h57.4
			v-4.9L63.3,47.9z M65.3,51.8l-0.2-0.5H64l-0.2,0.5h-0.6l1-2.9h0.7l1,2.9H65.3z M68,49.4h-0.8v2.3h-0.6v-2.3h-0.8v-0.5H68L68,49.4z
			 M71.3,51.8h-1.7v-2.9h0.6v2.3h1.1L71.3,51.8z M73.7,51.8l-0.2-0.5h-1.2l-0.2,0.5h-0.6l1-2.9h0.7l1,2.9H73.7z M76.3,51.8l-1-1.4
			v1.4h-0.6v-2.9h0.6v1.3l1-1.3h0.7l-1.1,1.4l1.1,1.5L76.3,51.8z M79.1,51.8h-1.8v-2.9h1.8v0.5h-1.2V50H79v0.5h-1.1v0.6h1.2
			L79.1,51.8z M81.4,51.6c-0.2,0.2-0.5,0.2-0.8,0.2c-0.3,0-0.5-0.1-0.7-0.2c-0.2-0.1-0.3-0.3-0.4-0.5l0.5-0.3
			c0.1,0.3,0.4,0.5,0.7,0.4c0.1,0,0.2,0,0.4-0.1c0.1-0.1,0.1-0.3,0.1-0.4c0,0-0.1-0.1-0.1-0.1c-0.2-0.1-0.3-0.1-0.5-0.2
			c-0.1,0-0.2-0.1-0.3-0.1c-0.1,0-0.2-0.1-0.3-0.2c-0.1-0.1-0.2-0.1-0.2-0.2c0-0.1-0.1-0.2-0.1-0.3c0-0.2,0.1-0.5,0.3-0.6
			c0.2-0.2,0.4-0.2,0.7-0.2c0.2,0,0.4,0.1,0.6,0.2c0.2,0.1,0.3,0.3,0.4,0.5l-0.5,0.3c-0.1-0.2-0.3-0.4-0.6-0.4c-0.1,0-0.2,0-0.3,0.1
			c-0.1,0-0.1,0.1-0.1,0.2c0,0.1,0,0.2,0.1,0.2c0.1,0.1,0.3,0.1,0.4,0.2c0.1,0,0.2,0,0.2,0.1s0.1,0,0.2,0.1c0.1,0,0.1,0.1,0.2,0.1
			c0.1,0,0.1,0.1,0.1,0.1c0,0,0.1,0.1,0.1,0.1c0,0.1,0.1,0.1,0.1,0.2c0,0.1,0,0.2,0,0.2C81.7,51.2,81.6,51.4,81.4,51.6 M84.4,51.8
			h-0.6v-1.2h-1.1v1.2h-0.6v-2.9h0.6V50h1.1v-1.1h0.6L84.4,51.8z M87.5,51.4c-0.6,0.6-1.5,0.6-2.1,0c-0.6-0.6-0.6-1.5,0-2.1
			s1.5-0.6,2.1,0c0.3,0.3,0.5,0.7,0.5,1.1C87.9,50.7,87.8,51.1,87.5,51.4 M90,51.8l-0.6-1H89v1h-0.6v-2.9h1.2c0.5,0,1,0.4,1,0.9
			c0,0,0,0,0,0c0,0.2-0.1,0.4-0.2,0.5c-0.1,0.1-0.2,0.3-0.4,0.3l0.6,1.1L90,51.8z M92.9,51.8h-1.8v-2.9h1.8v0.5h-1.2V50h1.1v0.5
			h-1.1v0.6h1.2L92.9,51.8z M95.2,51c0.2,0.2,0.4,0.3,0.7,0.3c0.2,0,0.3,0,0.4-0.1c0.1-0.1,0.2-0.2,0.3-0.3l0.5,0.3
			c-0.1,0.2-0.3,0.4-0.5,0.5c-0.6,0.3-1.3,0.2-1.8-0.2c-0.6-0.6-0.6-1.5,0-2.1c0.5-0.5,1.2-0.6,1.8-0.2c0.2,0.1,0.4,0.3,0.5,0.5
			l-0.5,0.3c-0.1-0.1-0.2-0.2-0.3-0.3c-0.1-0.1-0.3-0.1-0.4-0.1c-0.3,0-0.5,0.1-0.7,0.3C94.9,50,94.9,50.6,95.2,51 M100,51.4
			c-0.6,0.6-1.5,0.6-2.1,0c-0.6-0.6-0.6-1.5,0-2.1c0.6-0.6,1.5-0.6,2.1,0c0.3,0.3,0.4,0.7,0.4,1.1C100.5,50.7,100.3,51.1,100,51.4
			 M103.8,51.8h-0.6v-1.9l-0.8,1.3h-0.1l-0.8-1.3v1.9H101v-2.9h0.6l0.8,1.4l0.8-1.4h0.6L103.8,51.8z M107.3,51.8h-0.6v-1.9l-0.8,1.3
			h-0.1l-0.8-1.3v1.9h-0.6v-2.9h0.6l0.8,1.4l0.8-1.4h0.6V51.8z M110.4,51.4c-0.6,0.6-1.5,0.6-2.1,0c-0.6-0.6-0.6-1.5,0-2.1
			s1.5-0.6,2.1,0c0.3,0.3,0.5,0.7,0.5,1.1C110.8,50.7,110.7,51.1,110.4,51.4 M113.6,51.8h-0.4l-1.2-1.8v1.8h-0.6v-2.9h0.4l1.2,1.8
			v-1.8h0.6V51.8z M116,51.6c-0.2,0.2-0.5,0.2-0.8,0.2c-0.3,0-0.5-0.1-0.7-0.2c-0.2-0.1-0.3-0.3-0.4-0.5l0.5-0.3
			c0.1,0.3,0.4,0.5,0.7,0.4c0.1,0,0.2,0,0.4-0.1c0.1-0.1,0.1-0.3,0.1-0.4c0,0-0.1-0.1-0.1-0.1c-0.2-0.1-0.3-0.1-0.5-0.2
			c-0.1,0-0.2-0.1-0.3-0.1c-0.1,0-0.2-0.1-0.3-0.2c-0.1-0.1-0.2-0.1-0.2-0.2c0-0.1-0.1-0.2-0.1-0.3c0-0.2,0.1-0.5,0.3-0.6
			c0.2-0.2,0.4-0.2,0.7-0.2c0.2,0,0.4,0.1,0.6,0.2c0.2,0.1,0.3,0.3,0.4,0.5l-0.5,0.3c-0.1-0.2-0.3-0.4-0.6-0.4c-0.1,0-0.2,0-0.3,0.1
			c-0.1,0-0.1,0.1-0.1,0.2c0,0.1,0,0.2,0.1,0.2c0.1,0.1,0.3,0.1,0.4,0.2c0.1,0,0.2,0,0.2,0.1s0.1,0,0.2,0.1c0.1,0,0.1,0.1,0.2,0.1
			c0.1,0,0.1,0.1,0.1,0.1c0,0,0.1,0.1,0.1,0.1c0,0.1,0.1,0.1,0.1,0.2c0,0.1,0,0.2,0,0.2C116.2,51.2,116.1,51.4,116,51.6 M109.3,49.4
			c-0.2,0-0.5,0.1-0.7,0.3c-0.2,0.2-0.3,0.4-0.3,0.7c0,0.3,0.1,0.5,0.3,0.7c0.4,0.4,1,0.4,1.3,0c0.2-0.2,0.3-0.4,0.3-0.7
			c0-0.3-0.1-0.5-0.3-0.7C109.8,49.5,109.6,49.4,109.3,49.4 M99,49.4c-0.2,0-0.5,0.1-0.7,0.3c-0.2,0.2-0.3,0.4-0.3,0.7
			c0,0.5,0.4,0.9,0.9,0.9c0.2,0,0.5-0.1,0.7-0.3c0.2-0.2,0.3-0.4,0.3-0.7c0-0.3-0.1-0.5-0.3-0.7C99.5,49.5,99.2,49.4,99,49.4
			 M89.6,49.4H89v0.9h0.6c0.1,0,0.2,0,0.3-0.1c0.1-0.1,0.1-0.2,0.1-0.3c0-0.1,0-0.2-0.1-0.3C89.8,49.5,89.7,49.4,89.6,49.4
			 M86.4,49.4c-0.2,0-0.5,0.1-0.7,0.3c-0.2,0.2-0.3,0.4-0.3,0.7c0,0.3,0.1,0.5,0.3,0.7c0.4,0.4,1,0.4,1.3,0c0.2-0.2,0.3-0.4,0.3-0.7
			c0-0.3-0.1-0.5-0.3-0.7C86.9,49.5,86.6,49.4,86.4,49.4 M72.5,50.7h0.8l-0.4-1.2L72.5,50.7z M72.9,49.5l-0.4,1.2h0.8L72.9,49.5z
			 M87.1,49.6c-0.4-0.4-1-0.4-1.3,0c-0.2,0.2-0.3,0.4-0.3,0.7c0,0.3,0.1,0.5,0.3,0.7c0.4,0.4,1,0.4,1.3,0c0.2-0.2,0.3-0.4,0.3-0.7
			C87.3,50.1,87.2,49.8,87.1,49.6 M89.9,49.5c-0.1-0.1-0.2-0.1-0.3-0.1H89v0.9h0.6c0.1,0,0.2,0,0.3-0.1c0.1-0.1,0.1-0.2,0.1-0.3
			C90,49.7,89.9,49.6,89.9,49.5 M99.6,49.6c-0.4-0.4-1-0.4-1.3,0c-0.2,0.2-0.3,0.4-0.3,0.7c0,0.5,0.4,0.9,0.9,0.9
			c0.2,0,0.5-0.1,0.7-0.3c0.2-0.2,0.3-0.4,0.3-0.7C99.9,50.1,99.8,49.8,99.6,49.6 M110,49.6c-0.4-0.4-1-0.4-1.3,0
			c-0.2,0.2-0.3,0.4-0.3,0.7c0,0.3,0.1,0.5,0.3,0.7c0.4,0.4,1,0.4,1.3,0c0.2-0.2,0.3-0.4,0.3-0.7C110.3,50.1,110.2,49.8,110,49.6
			 M110,49.6c-0.4-0.4-1-0.4-1.3,0c-0.2,0.2-0.3,0.4-0.3,0.7c0,0.3,0.1,0.5,0.3,0.7c0.4,0.4,1,0.4,1.3,0c0.2-0.2,0.3-0.4,0.3-0.7
			C110.3,50.1,110.2,49.8,110,49.6 M99.6,49.6c-0.4-0.4-1-0.4-1.3,0c-0.2,0.2-0.3,0.4-0.3,0.7c0,0.5,0.4,0.9,0.9,0.9
			c0.2,0,0.5-0.1,0.7-0.3c0.2-0.2,0.3-0.4,0.3-0.7C99.9,50.1,99.8,49.8,99.6,49.6 M89.9,49.5c-0.1-0.1-0.2-0.1-0.3-0.1H89v0.9h0.6
			c0.1,0,0.2,0,0.3-0.1c0.1-0.1,0.1-0.2,0.1-0.3C90,49.7,89.9,49.6,89.9,49.5 M87.1,49.6c-0.4-0.4-1-0.4-1.3,0
			c-0.2,0.2-0.3,0.4-0.3,0.7c0,0.3,0.1,0.5,0.3,0.7c0.4,0.4,1,0.4,1.3,0c0.2-0.2,0.3-0.4,0.3-0.7C87.4,50.1,87.3,49.8,87.1,49.6
			 M72.9,49.5l-0.4,1.2h0.8L72.9,49.5z M72.9,49.5l-0.4,1.2h0.8L72.9,49.5z M87.1,49.6c-0.4-0.4-1-0.4-1.3,0
			c-0.2,0.2-0.3,0.4-0.3,0.7c0,0.3,0.1,0.5,0.3,0.7c0.4,0.4,1,0.4,1.3,0c0.2-0.2,0.3-0.4,0.3-0.7C87.3,50.1,87.2,49.8,87.1,49.6
			 M89.9,49.5c-0.1-0.1-0.2-0.1-0.3-0.1H89v0.9h0.6c0.1,0,0.2,0,0.3-0.1c0.1-0.1,0.1-0.2,0.1-0.3C90,49.7,89.9,49.6,89.9,49.5
			 M99.6,49.6c-0.4-0.4-1-0.4-1.3,0c-0.2,0.2-0.3,0.4-0.3,0.7c0,0.5,0.4,0.9,0.9,0.9c0.2,0,0.5-0.1,0.7-0.3c0.2-0.2,0.3-0.4,0.3-0.7
			C99.9,50.1,99.8,49.8,99.6,49.6 M99.6,49.6c-0.4-0.4-1-0.4-1.3,0c-0.2,0.2-0.3,0.4-0.3,0.7c0,0.5,0.4,0.9,0.9,0.9
			c0.2,0,0.5-0.1,0.7-0.3c0.2-0.2,0.3-0.4,0.3-0.7C99.9,50.1,99.8,49.8,99.6,49.6 M89.9,49.5c-0.1-0.1-0.2-0.1-0.3-0.1H89v0.9h0.6
			c0.1,0,0.2,0,0.3-0.1c0.1-0.1,0.1-0.2,0.1-0.3C90,49.7,89.9,49.6,89.9,49.5 M87.1,49.6c-0.4-0.4-1-0.4-1.3,0
			c-0.2,0.2-0.3,0.4-0.3,0.7c0,0.3,0.1,0.5,0.3,0.7c0.4,0.4,1,0.4,1.3,0c0.2-0.2,0.3-0.4,0.3-0.7C87.3,50.1,87.3,49.8,87.1,49.6
			 M72.9,49.5l-0.4,1.2h0.8L72.9,49.5z M72.9,49.5l-0.4,1.2h0.8L72.9,49.5z M87.1,49.6c-0.4-0.4-1-0.4-1.3,0
			c-0.2,0.2-0.3,0.4-0.3,0.7c0,0.3,0.1,0.5,0.3,0.7c0.4,0.4,1,0.4,1.3,0c0.2-0.2,0.3-0.4,0.3-0.7C87.3,50.1,87.2,49.8,87.1,49.6
			 M89.9,49.5c-0.1-0.1-0.2-0.1-0.3-0.1H89v0.9h0.6c0.1,0,0.2,0,0.3-0.1c0.1-0.1,0.1-0.2,0.1-0.3C90,49.7,89.9,49.6,89.9,49.5
			 M89.9,49.5c-0.1-0.1-0.2-0.1-0.3-0.1H89v0.9h0.6c0.1,0,0.2,0,0.3-0.1c0.1-0.1,0.1-0.2,0.1-0.3C90,49.7,89.9,49.6,89.9,49.5
			 M87.1,49.6c-0.4-0.4-1-0.4-1.3,0c-0.2,0.2-0.3,0.4-0.3,0.7c0,0.3,0.1,0.5,0.3,0.7c0.4,0.4,1,0.4,1.3,0c0.2-0.2,0.3-0.4,0.3-0.7
			C87.3,50.1,87.2,49.8,87.1,49.6 M72.9,49.5l-0.4,1.2h0.8L72.9,49.5z M72.9,49.5l-0.4,1.2h0.8L72.9,49.5z M87.1,49.6
			c-0.4-0.4-1-0.4-1.3,0c-0.2,0.2-0.3,0.4-0.3,0.7c0,0.3,0.1,0.5,0.3,0.7c0.4,0.4,1,0.4,1.3,0c0.2-0.2,0.3-0.4,0.3-0.7
			C87.3,50.1,87.2,49.8,87.1,49.6 M89.9,49.5c-0.1-0.1-0.2-0.1-0.3-0.1H89v0.9h0.6c0.1,0,0.2,0,0.3-0.1c0.1-0.1,0.1-0.2,0.1-0.3
			C90,49.7,89.9,49.6,89.9,49.5 M89.9,49.5c-0.1-0.1-0.2-0.1-0.3-0.1H89v0.9h0.6c0.1,0,0.2,0,0.3-0.1c0.1-0.1,0.1-0.2,0.1-0.3
			C90,49.7,89.9,49.6,89.9,49.5 M87.1,49.6c-0.4-0.4-1-0.4-1.3,0c-0.2,0.2-0.3,0.4-0.3,0.7c0,0.3,0.1,0.5,0.3,0.7
			c0.4,0.4,1,0.4,1.3,0c0.2-0.2,0.3-0.4,0.3-0.7C87.3,50.1,87.2,49.8,87.1,49.6 M72.9,49.5l-0.4,1.2h0.8L72.9,49.5z M72.9,49.5
			l-0.4,1.2h0.8L72.9,49.5z M72.9,49.5l-0.4,1.2h0.8L72.9,49.5z M72.9,49.5l-0.4,1.2h0.8L72.9,49.5z M72.9,49.5l-0.4,1.2h0.8
			L72.9,49.5z M72.9,49.5l-0.4,1.2h0.8L72.9,49.5z M72.9,49.5l-0.4,1.2h0.8L72.9,49.5z"/>
		<path class="st0" d="M58.5,55.5c-0.4,0.5-0.7,0.8-1,1.2c-0.7,0.8-1.5,1.5-2.3,2.2h0.7l0,0h62.3v-4.5H59.4L58.5,55.5z"/>
		<path class="st0" d="M75.6,26.1h-4.2l-6.1,17.3H69l1-3.1h7.1l1.1,3.1h3.5L75.6,26.1z M71.1,37.1l2.4-7.1l2.5,7.1H71.1z"/>
		<path class="st0" d="M57.5,28.4c-3.5-3.5-9.2-3.5-12.7,0c-1.7,1.7-2.7,4-2.7,6.4c0,5,4.1,9,9,9c2.4,0,4.6-0.9,6.3-2.6
			C61,37.6,61,31.9,57.5,28.4 M55.1,38.8c-2.2,2.1-5.7,2.1-8,0c-1.1-1.1-1.7-2.5-1.6-4.1c-0.1-1.5,0.5-3,1.6-4.1
			c2.2-2.1,5.7-2.1,8,0c1.1,1.1,1.7,2.6,1.6,4.1C56.8,36.3,56.2,37.7,55.1,38.8"/>
	</g>
</g>
<rect x="63.1" y="48.7" class="st0" width="53.7" height="3.4"/>
</svg>
