<svg xmlns="http://www.w3.org/2000/svg" xmlns:xlink="http://www.w3.org/1999/xlink" width="134.97" height="74.65" viewBox="0 0 134.97 74.65"><defs><clipPath id="a"><rect width="134.97" height="74.65" fill="none"/></clipPath></defs><g clip-path="url(#a)"><path d="M250.508,92.341a8.829,8.829,0,0,1-4.941-1.313,7.018,7.018,0,0,1-2.823-3.571l3.331-1.948a4.438,4.438,0,0,0,4.545,3.021,3.914,3.914,0,0,0,2.4-.593,1.866,1.866,0,0,0-.17-3.119,14.379,14.379,0,0,0-3.331-1.256,20.554,20.554,0,0,1-2.244-.791,9.685,9.685,0,0,1-1.836-1.058,4.321,4.321,0,0,1-1.4-1.68,5.5,5.5,0,0,1-.479-2.371,5.292,5.292,0,0,1,1.905-4.277,6.912,6.912,0,0,1,4.588-1.6,7.634,7.634,0,0,1,4.22,1.171,7.871,7.871,0,0,1,2.837,3.261l-3.275,1.892a3.945,3.945,0,0,0-3.783-2.541,2.982,2.982,0,0,0-1.906.55,1.738,1.738,0,0,0-.692,1.426,1.8,1.8,0,0,0,.776,1.51,10.858,10.858,0,0,0,2.979,1.256q.9.282,1.369.438t1.271.48a7.746,7.746,0,0,1,1.242.607,9.909,9.909,0,0,1,1,.762,3.905,3.905,0,0,1,.861.988,5.644,5.644,0,0,1,.72,2.8,5.3,5.3,0,0,1-1.991,4.347,7.983,7.983,0,0,1-5.18,1.609" transform="translate(-143.466 -42.428)" fill="#265b5c"/><path d="M250.508,92.341a8.829,8.829,0,0,1-4.941-1.313,7.018,7.018,0,0,1-2.823-3.571l3.331-1.948a4.438,4.438,0,0,0,4.545,3.021,3.914,3.914,0,0,0,2.4-.593,1.866,1.866,0,0,0-.17-3.119,14.379,14.379,0,0,0-3.331-1.256,20.554,20.554,0,0,1-2.244-.791,9.685,9.685,0,0,1-1.836-1.058,4.321,4.321,0,0,1-1.4-1.68,5.5,5.5,0,0,1-.479-2.371,5.292,5.292,0,0,1,1.905-4.277,6.912,6.912,0,0,1,4.588-1.6,7.634,7.634,0,0,1,4.22,1.171,7.871,7.871,0,0,1,2.837,3.261l-3.275,1.892a3.945,3.945,0,0,0-3.783-2.541,2.982,2.982,0,0,0-1.906.55,1.738,1.738,0,0,0-.692,1.426,1.8,1.8,0,0,0,.776,1.51,10.858,10.858,0,0,0,2.979,1.256q.9.282,1.369.438t1.271.48a7.746,7.746,0,0,1,1.242.607,9.909,9.909,0,0,1,1,.762,3.905,3.905,0,0,1,.861.988,5.644,5.644,0,0,1,.72,2.8,5.3,5.3,0,0,1-1.991,4.347A7.983,7.983,0,0,1,250.508,92.341Z" transform="translate(-143.466 -42.428)" fill="none" stroke="#265b5c" stroke-miterlimit="10" stroke-width="1"/><path d="M308.5,72.755v3.727h-5.336V92.517h-3.9V76.481h-5.308V72.755Z" transform="translate(-173.738 -42.999)" fill="#265b5c"/><path d="M308.5,72.755v3.727h-5.336V92.517h-3.9V76.481h-5.308V72.755Z" transform="translate(-173.738 -42.999)" fill="none" stroke="#265b5c" stroke-miterlimit="10" stroke-width="1"/><path d="M23.271,56.532A22.588,22.588,0,0,1,61.957,40.671l3.8-3.381A27.685,27.685,0,1,0,45.875,84.228H70.77a35.109,35.109,0,0,0,4.16-3.817c.386-.416.756-.843,1.12-1.274H45.875a22.63,22.63,0,0,1-22.6-22.6" transform="translate(-10.745 -17.043)" fill="#388887"/><path d="M40.8,66.571a15.122,15.122,0,0,1,25.619-10.9l4.187-3.726a20.744,20.744,0,1,0-14.7,35.378H87.551a34.907,34.907,0,0,0,3.362-5.609H55.942A15.157,15.157,0,0,1,40.8,66.571" transform="translate(-20.782 -27.082)" fill="#6cc4c3"/><path d="M5.58,45.745A29.523,29.523,0,0,1,56.4,25.269l4.209-3.745A35.148,35.148,0,1,0,35.16,80.9H38.4A35.2,35.2,0,0,0,57.408,75.3H35.13A29.584,29.584,0,0,1,5.58,45.745" transform="translate(0 -6.255)" fill="#265b5c"/><path d="M75.715,87.235a5.507,5.507,0,0,1-.805.546,6.28,6.28,0,0,1-3.063.748A6.2,6.2,0,0,1,67.2,86.722a7.068,7.068,0,0,1,0-9.344A6.762,6.762,0,0,1,74.9,76.319a5.561,5.561,0,0,1,.675.442l2.885-2.568A9.79,9.79,0,0,0,76.8,73.044a10.082,10.082,0,0,0-4.955-1.256,9.91,9.91,0,0,0-7.369,2.95,10.666,10.666,0,0,0,0,14.638,9.886,9.886,0,0,0,7.369,2.964,10.044,10.044,0,0,0,4.969-1.256,9.665,9.665,0,0,0,1.79-1.278Z" transform="translate(-36.389 -42.428)" fill="#265b5c"/><path d="M75.715,87.235a5.507,5.507,0,0,1-.805.546,6.28,6.28,0,0,1-3.063.748A6.2,6.2,0,0,1,67.2,86.722a7.068,7.068,0,0,1,0-9.344A6.762,6.762,0,0,1,74.9,76.319a5.561,5.561,0,0,1,.675.442l2.885-2.568A9.79,9.79,0,0,0,76.8,73.044a10.082,10.082,0,0,0-4.955-1.256,9.91,9.91,0,0,0-7.369,2.95,10.666,10.666,0,0,0,0,14.638,9.886,9.886,0,0,0,7.369,2.964,10.044,10.044,0,0,0,4.969-1.256,9.665,9.665,0,0,0,1.79-1.278Z" transform="translate(-36.389 -42.428)" fill="none" stroke="#265b5c" stroke-miterlimit="10" stroke-width="1"/><path d="M5.61,0H0V27.852A36.981,36.981,0,0,1,5.61,17.191Z" fill="#265b5c"/><path d="M40.846,0H35.236V8.827a37,37,0,0,1,5.61-3.135Z" transform="translate(-20.825)" fill="#6cc4c3"/><path d="M23.344,10.174V0H18.253V14.93a37.356,37.356,0,0,1,5.09-4.756" transform="translate(-10.788)" fill="#388887"/><path d="M122.231,174.419h84.775v-5.61H133.114l-2.452,1.577a37.28,37.28,0,0,1-8.432,4.033" transform="translate(-72.241 -99.769)" fill="#265b5c"/><path d="M172.02,133.574l-.387.809a36.915,36.915,0,0,1-2.754,4.781h.267l-.017.02h65.447v-5.61Z" transform="translate(-99.81 -78.945)" fill="#6cc4c3"/><path d="M157.73,153.034c-.435.517-.809.942-1.178,1.34-.816.88-1.687,1.72-2.594,2.524h.823l-.03.019h71.006v-5.09H158.747Z" transform="translate(-90.992 -89.732)" fill="#388887"/><path d="M196.836,92.516l-1.256-3.557h-8.118l-1.186,3.557H182.07l6.917-19.762h4.828l6.972,19.762Zm-8.105-7.2h5.563l-2.852-8.074Z" transform="translate(-107.607 -42.999)" fill="#265b5c"/><path d="M196.836,92.516l-1.256-3.557h-8.118l-1.186,3.557H182.07l6.917-19.762h4.828l6.972,19.762Zm-8.105-7.2h5.563l-2.852-8.074Z" transform="translate(-107.607 -42.999)" fill="none" stroke="#265b5c" stroke-miterlimit="10" stroke-width="1"/><path d="M134.988,89.362a10.4,10.4,0,1,1,2.992-7.3,9.937,9.937,0,0,1-2.992,7.3m-11.829-2.654a6.583,6.583,0,0,0,9.091,0,6.812,6.812,0,0,0,0-9.3,6.547,6.547,0,0,0-9.091,0,6.813,6.813,0,0,0,0,9.3" transform="translate(-69.419 -42.428)" fill="#265b5c"/><path d="M134.988,89.362a10.4,10.4,0,1,1,2.992-7.3A9.937,9.937,0,0,1,134.988,89.362Zm-11.829-2.654a6.583,6.583,0,0,0,9.091,0,6.812,6.812,0,0,0,0-9.3,6.547,6.547,0,0,0-9.091,0,6.813,6.813,0,0,0,0,9.3Z" transform="translate(-69.419 -42.428)" fill="none" stroke="#265b5c" stroke-miterlimit="10" stroke-width="1"/><path d="M178.639,139.575l-.21-.593h-1.353l-.2.593h-.7l1.153-3.292h.8l1.161,3.292Zm-1.35-1.2h.927l-.475-1.345Z" transform="translate(-104.125 -80.546)" fill="#fff"/><path d="M186.167,136.283v.621h-.889v2.671h-.649V136.9h-.884v-.621Z" transform="translate(-108.596 -80.545)" fill="#fff"/><path d="M194.767,138.954h1.256v.621h-1.905v-3.292h.649Z" transform="translate(-114.727 -80.546)" fill="#fff"/><path d="M201.984,139.575l-.21-.593h-1.353l-.2.593h-.7l1.152-3.292h.8l1.162,3.292Zm-1.35-1.2h.927l-.475-1.345Z" transform="translate(-117.922 -80.546)" fill="#fff"/><path d="M210.847,139.575H210.1l-1.176-1.542v1.542h-.649v-3.292h.649v1.451l1.129-1.451h.748l-1.218,1.6Z" transform="translate(-123.094 -80.545)" fill="#fff"/><path d="M216.341,138.954h1.387v.621h-2.037v-3.292h2.013v.62h-1.364v.7h1.246v.611h-1.246Z" transform="translate(-127.478 -80.546)" fill="#fff"/><path d="M223.011,139.545a1.472,1.472,0,0,1-.823-.219,1.166,1.166,0,0,1-.47-.6l.555-.324a.74.74,0,0,0,.757.5.655.655,0,0,0,.4-.1.3.3,0,0,0,.127-.249.3.3,0,0,0-.155-.27,2.359,2.359,0,0,0-.555-.209,3.709,3.709,0,0,1-.374-.131,1.626,1.626,0,0,1-.306-.177.719.719,0,0,1-.233-.28.917.917,0,0,1-.08-.395.882.882,0,0,1,.317-.713,1.155,1.155,0,0,1,.764-.266,1.274,1.274,0,0,1,.7.195,1.317,1.317,0,0,1,.472.544l-.546.315a.657.657,0,0,0-.63-.423.492.492,0,0,0-.317.092.288.288,0,0,0-.115.237.3.3,0,0,0,.129.252,1.825,1.825,0,0,0,.5.209l.228.073c.052.017.123.045.211.08a1.294,1.294,0,0,1,.207.1,1.683,1.683,0,0,1,.167.127.641.641,0,0,1,.144.165.94.94,0,0,1,.12.465.884.884,0,0,1-.332.725,1.332,1.332,0,0,1-.863.268" transform="translate(-131.039 -80.45)" fill="#fff"/><path d="M230.995,136.283h.645v3.292h-.645v-1.364h-1.222v1.364h-.649v-3.292h.649v1.307h1.222Z" transform="translate(-135.416 -80.545)" fill="#fff"/><path d="M239.67,139.049a1.731,1.731,0,1,1,.5-1.216,1.654,1.654,0,0,1-.5,1.216m-1.971-.442a1.1,1.1,0,0,0,1.514,0,1.134,1.134,0,0,0,0-1.55,1.091,1.091,0,0,0-1.514,0,1.135,1.135,0,0,0,0,1.55" transform="translate(-139.923 -80.45)" fill="#fff"/><path d="M248.374,139.575l-.665-1.143h-.491v1.143h-.649v-3.292h1.317a1.091,1.091,0,0,1,1.1,1.091,1,1,0,0,1-.174.566,1.092,1.092,0,0,1-.461.393l.729,1.242Zm-1.157-2.685v.973h.668a.411.411,0,0,0,.315-.144.493.493,0,0,0,.132-.345.485.485,0,0,0-.132-.344.415.415,0,0,0-.315-.141Z" transform="translate(-145.726 -80.546)" fill="#fff"/><path d="M254.623,138.954h1.387v.621h-2.037v-3.292h2.013v.62h-1.364v.7h1.246v.611h-1.246Z" transform="translate(-150.103 -80.546)" fill="#fff"/><path d="M264.978,139.545a1.646,1.646,0,0,1-1.227-.494,1.776,1.776,0,0,1,0-2.439,1.65,1.65,0,0,1,1.227-.491,1.68,1.68,0,0,1,.826.209,1.531,1.531,0,0,1,.59.567l-.56.324a.868.868,0,0,0-.348-.346,1.127,1.127,0,0,0-1.282.176,1.179,1.179,0,0,0,0,1.557,1.032,1.032,0,0,0,.774.3,1.048,1.048,0,0,0,.51-.124.852.852,0,0,0,.346-.341l.56.325a1.541,1.541,0,0,1-.588.566,1.676,1.676,0,0,1-.828.209" transform="translate(-155.595 -80.45)" fill="#fff"/><path d="M274.708,139.049a1.731,1.731,0,1,1,.5-1.216,1.654,1.654,0,0,1-.5,1.216m-1.971-.442a1.1,1.1,0,0,0,1.514,0,1.134,1.134,0,0,0,0-1.55,1.091,1.091,0,0,0-1.514,0,1.135,1.135,0,0,0,0,1.55" transform="translate(-160.631 -80.45)" fill="#fff"/><path d="M284.829,136.283v3.292h-.644v-2.136l-.929,1.528-.075,0-.924-1.521v2.127h-.649v-3.292h.668l.944,1.555.939-1.555Z" transform="translate(-166.435 -80.545)" fill="#fff"/><path d="M294.545,136.283v3.292H293.9v-2.136l-.929,1.528-.075,0-.924-1.521v2.127h-.649v-3.292h.668l.943,1.555.939-1.555Z" transform="translate(-172.177 -80.545)" fill="#fff"/><path d="M303.6,139.049a1.732,1.732,0,1,1,.5-1.216,1.654,1.654,0,0,1-.5,1.216m-1.971-.442a1.1,1.1,0,0,0,1.514,0,1.134,1.134,0,0,0,0-1.55,1.091,1.091,0,0,0-1.514,0,1.135,1.135,0,0,0,0,1.55" transform="translate(-177.704 -80.45)" fill="#fff"/><path d="M312.4,136.283h.649v3.292h-.494l-1.411-2.013v2.013h-.649v-3.292h.494l1.411,2.005Z" transform="translate(-183.507 -80.545)" fill="#fff"/><path d="M319.331,139.545a1.472,1.472,0,0,1-.823-.219,1.166,1.166,0,0,1-.47-.6l.555-.324a.74.74,0,0,0,.757.5.655.655,0,0,0,.4-.1.3.3,0,0,0,.127-.249.3.3,0,0,0-.155-.27,2.357,2.357,0,0,0-.555-.209,3.708,3.708,0,0,1-.374-.131,1.627,1.627,0,0,1-.306-.177.719.719,0,0,1-.233-.28.916.916,0,0,1-.08-.395.882.882,0,0,1,.317-.713,1.155,1.155,0,0,1,.764-.266,1.274,1.274,0,0,1,.7.195,1.317,1.317,0,0,1,.472.544l-.546.315a.657.657,0,0,0-.63-.423.493.493,0,0,0-.317.092.288.288,0,0,0-.115.237.3.3,0,0,0,.129.252,1.826,1.826,0,0,0,.5.209l.228.073c.052.017.123.045.211.08a1.292,1.292,0,0,1,.207.1,1.687,1.687,0,0,1,.167.127.641.641,0,0,1,.144.165.94.94,0,0,1,.12.465.884.884,0,0,1-.332.725,1.332,1.332,0,0,1-.863.268" transform="translate(-187.966 -80.45)" fill="#fff"/></g></svg>