<?xml version="1.0" encoding="utf-8"?>
<!-- Generator: Adobe Illustrator 27.6.1, SVG Export Plug-In . SVG Version: 6.00 Build 0)  -->
<svg version="1.1" id="Layer_1" xmlns="http://www.w3.org/2000/svg" xmlns:xlink="http://www.w3.org/1999/xlink" x="0px" y="0px"
	 viewBox="0 0 135 74.7" style="enable-background:new 0 0 135 74.7;" xml:space="preserve">
<style type="text/css">
	.st0{clip-path:url(#SVGID_00000133523180943232227880000000572476368649717166_);}
	.st1{fill:#265B5C;}
	.st2{fill:none;stroke:#265B5C;stroke-miterlimit:10;}
	.st3{fill:#388887;}
	.st4{fill:#6CC4C3;}
	.st5{fill:#FFFFFF;}
</style>
<g>
	<defs>
		<rect id="SVGID_1_" width="135" height="74.7"/>
	</defs>
	<clipPath id="SVGID_00000062895068289004798810000000902024249943160491_">
		<use xlink:href="#SVGID_1_"  style="overflow:visible;"/>
	</clipPath>
	<g style="clip-path:url(#SVGID_00000062895068289004798810000000902024249943160491_);">
		<path class="st1" d="M107,49.9c-1.7,0.1-3.5-0.4-4.9-1.3c-1.3-0.8-2.3-2.1-2.8-3.6l3.3-1.9c0.6,1.9,2.5,3.2,4.5,3
			c0.8,0.1,1.7-0.1,2.4-0.6c0.8-0.6,1-1.8,0.4-2.6c-0.2-0.2-0.3-0.4-0.6-0.5c-1.1-0.6-2.2-1-3.3-1.3c-0.8-0.2-1.5-0.5-2.2-0.8
			c-0.6-0.3-1.3-0.6-1.8-1.1c-0.6-0.4-1.1-1-1.4-1.7c-0.3-0.7-0.5-1.6-0.5-2.4c-0.1-1.6,0.6-3.2,1.9-4.3c1.3-1.1,2.9-1.6,4.6-1.6
			c1.5,0,3,0.4,4.2,1.2c1.2,0.8,2.2,1.9,2.8,3.3l-3.3,1.9c-0.6-1.6-2.1-2.6-3.8-2.5c-0.7,0-1.4,0.2-1.9,0.6
			c-0.4,0.3-0.7,0.9-0.7,1.4c0,0.6,0.3,1.2,0.8,1.5c0.9,0.6,1.9,1,3,1.3c0.6,0.2,1.1,0.3,1.4,0.4c0.3,0.1,0.7,0.3,1.3,0.5
			c0.4,0.2,0.8,0.4,1.2,0.6c0.3,0.2,0.7,0.5,1,0.8c0.3,0.3,0.6,0.6,0.9,1c0.5,0.9,0.7,1.8,0.7,2.8c0.1,1.7-0.7,3.3-2,4.3
			C110.7,49.4,108.9,50,107,49.9"/>
		<path class="st2" d="M107,49.9c-1.7,0.1-3.5-0.4-4.9-1.3c-1.3-0.8-2.3-2.1-2.8-3.6l3.3-1.9c0.6,1.9,2.5,3.2,4.5,3
			c0.8,0.1,1.7-0.1,2.4-0.6c0.8-0.6,1-1.8,0.4-2.6c-0.2-0.2-0.3-0.4-0.6-0.5c-1.1-0.6-2.2-1-3.3-1.3c-0.8-0.2-1.5-0.5-2.2-0.8
			c-0.6-0.3-1.3-0.6-1.8-1.1c-0.6-0.4-1.1-1-1.4-1.7c-0.3-0.7-0.5-1.6-0.5-2.4c-0.1-1.6,0.6-3.2,1.9-4.3c1.3-1.1,2.9-1.6,4.6-1.6
			c1.5,0,3,0.4,4.2,1.2c1.2,0.8,2.2,1.9,2.8,3.3l-3.3,1.9c-0.6-1.6-2.1-2.6-3.8-2.5c-0.7,0-1.4,0.2-1.9,0.6
			c-0.4,0.3-0.7,0.9-0.7,1.4c0,0.6,0.3,1.2,0.8,1.5c0.9,0.6,1.9,1,3,1.3c0.6,0.2,1.1,0.3,1.4,0.4c0.3,0.1,0.7,0.3,1.3,0.5
			c0.4,0.2,0.8,0.4,1.2,0.6c0.3,0.2,0.7,0.5,1,0.8c0.3,0.3,0.6,0.6,0.9,1c0.5,0.9,0.7,1.8,0.7,2.8c0.1,1.7-0.7,3.3-2,4.3
			C110.7,49.4,108.9,50,107,49.9z"/>
		<path class="st1" d="M134.8,29.8v3.7h-5.3v16h-3.9v-16h-5.3v-3.7H134.8z"/>
		<path class="st2" d="M134.8,29.8v3.7h-5.3v16h-3.9v-16h-5.3v-3.7H134.8z"/>
		<path class="st3" d="M12.5,39.5c0-12.5,10.1-22.6,22.6-22.6c6.1,0,11.9,2.4,16.1,6.7l3.8-3.4C44.4,9.3,26.9,9,15.9,19.6
			S4.6,47.8,15.2,58.8c5.2,5.4,12.4,8.4,19.9,8.4H60c1.5-1.2,2.9-2.4,4.2-3.8c0.4-0.4,0.8-0.8,1.1-1.3H35.1
			C22.7,62.1,12.5,52,12.5,39.5"/>
		<path class="st4" d="M20,39.5c0-8.4,6.8-15.1,15.1-15.1c3.9,0,7.7,1.5,10.5,4.2l4.2-3.7c-8.1-8.1-21.2-8.2-29.3-0.1
			S12.3,46,20.4,54.1c3.9,3.9,9.2,6.1,14.7,6.1h31.6c1.3-1.8,2.4-3.6,3.4-5.6h-35C26.8,54.6,20,47.8,20,39.5"/>
		<path class="st1" d="M5.6,39.5C5.6,23.2,18.8,10,35.1,9.9c8,0,15.8,3.3,21.3,9.1l4.2-3.7C47.2,1.2,25,0.7,10.9,14
			S-3.7,49.7,9.7,63.7c6.6,7,15.8,10.9,25.5,10.9h3.2c6.7,0,13.3-2,19-5.6H35.1C18.8,69,5.6,55.8,5.6,39.5"/>
		<path class="st1" d="M39.3,44.8c-0.3,0.2-0.5,0.4-0.8,0.5c-0.9,0.5-2,0.8-3.1,0.7c-1.7,0.1-3.4-0.6-4.6-1.8
			c-2.4-2.7-2.4-6.7,0-9.3c2.1-1.9,5.2-2.4,7.7-1.1c0.2,0.1,0.5,0.3,0.7,0.4l2.9-2.6c-0.5-0.4-1.1-0.8-1.7-1.1
			c-1.5-0.8-3.2-1.3-5-1.3c-2.8-0.1-5.4,1-7.4,2.9c-3.9,4.1-3.9,10.5,0,14.6c1.9,2,4.6,3,7.4,3c1.7,0,3.4-0.4,5-1.3
			c0.6-0.4,1.2-0.8,1.8-1.3L39.3,44.8z"/>
		<path class="st2" d="M39.3,44.8c-0.3,0.2-0.5,0.4-0.8,0.5c-0.9,0.5-2,0.8-3.1,0.7c-1.7,0.1-3.4-0.6-4.6-1.8
			c-2.4-2.7-2.4-6.7,0-9.3c2.1-1.9,5.2-2.4,7.7-1.1c0.2,0.1,0.5,0.3,0.7,0.4l2.9-2.6c-0.5-0.4-1.1-0.8-1.7-1.1
			c-1.5-0.8-3.2-1.3-5-1.3c-2.8-0.1-5.4,1-7.4,2.9c-3.9,4.1-3.9,10.5,0,14.6c1.9,2,4.6,3,7.4,3c1.7,0,3.4-0.4,5-1.3
			c0.6-0.4,1.2-0.8,1.8-1.3L39.3,44.8z"/>
		<path class="st1" d="M5.6,0H0v27.9c1.3-3.8,3.2-7.4,5.6-10.7V0z"/>
		<path class="st4" d="M20,0h-5.6v8.8c1.8-1.2,3.7-2.3,5.6-3.1V0z"/>
		<path class="st3" d="M12.6,10.2V0H7.5v14.9C9,13.2,10.7,11.6,12.6,10.2"/>
		<path class="st1" d="M50,74.7h84.8V69H60.9l-2.5,1.6C55.8,72.3,53,73.7,50,74.7"/>
		<path class="st4" d="M72.2,54.6l-0.4,0.8c-0.8,1.7-1.7,3.3-2.8,4.8h0.3l0,0h65.4v-5.6L72.2,54.6z"/>
		<path class="st3" d="M66.7,63.3c-0.4,0.5-0.8,0.9-1.2,1.3c-0.8,0.9-1.7,1.7-2.6,2.5h0.8l0,0h71v-5.1h-67L66.7,63.3z"/>
		<path class="st1" d="M89.2,49.5L88,46h-8.1l-1.2,3.6h-4.2l6.9-19.8h4.8l7,19.8H89.2z M81.1,42.3h5.6l-2.9-8.1L81.1,42.3z"/>
		<path class="st2" d="M89.2,49.5L88,46h-8.1l-1.2,3.6h-4.2l6.9-19.8h4.8l7,19.8H89.2z M81.1,42.3h5.6l-2.9-8.1L81.1,42.3z"/>
		<path class="st1" d="M65.6,46.9C61.5,51,55,51.1,50.9,47c-4.1-4-4.1-10.6-0.1-14.7c4-4.1,10.6-4.1,14.7-0.1c2,2,3.1,4.6,3.1,7.4
			C68.6,42.4,67.5,45,65.6,46.9 M53.7,44.3c2.5,2.4,6.5,2.4,9.1,0c2.4-2.6,2.4-6.7,0-9.3c-2.5-2.4-6.6-2.4-9.1,0
			C51.3,37.6,51.3,41.7,53.7,44.3"/>
		<path class="st2" d="M65.6,46.9C61.5,51,55,51.1,50.9,47c-4.1-4-4.1-10.6-0.1-14.7c4-4.1,10.6-4.1,14.7-0.1c2,2,3.1,4.6,3.1,7.4
			C68.6,42.4,67.5,45,65.6,46.9z M53.7,44.3c2.5,2.4,6.5,2.4,9.1,0c2.4-2.6,2.4-6.7,0-9.3c-2.5-2.4-6.6-2.4-9.1,0
			C51.3,37.6,51.3,41.7,53.7,44.3z"/>
		<path class="st5" d="M74.5,59l-0.2-0.6H73L72.8,59h-0.7l1.2-3.3H74l1.2,3.3H74.5z M73.2,57.8h0.9l-0.5-1.3L73.2,57.8z"/>
		<path class="st5" d="M77.6,55.7v0.6h-0.9V59H76v-2.7h-0.9v-0.6L77.6,55.7z"/>
		<path class="st5" d="M80,58.4h1.3V59h-1.9v-3.3H80V58.4z"/>
		<path class="st5" d="M84.1,59l-0.2-0.6h-1.4L82.3,59h-0.7l1.2-3.3h0.8l1.2,3.3H84.1z M82.7,57.8h0.9l-0.5-1.3L82.7,57.8z"/>
		<path class="st5" d="M87.8,59H87l-1.2-1.5V59h-0.6v-3.3h0.6v1.5l1.1-1.5h0.7l-1.2,1.6L87.8,59z"/>
		<path class="st5" d="M88.9,58.4h1.4V59h-2v-3.3h2v0.6h-1.4v0.7h1.2v0.6h-1.2L88.9,58.4z"/>
		<path class="st5" d="M92,59.1c-0.3,0-0.6-0.1-0.8-0.2c-0.2-0.1-0.4-0.4-0.5-0.6l0.6-0.3c0.1,0.3,0.4,0.5,0.8,0.5
			c0.1,0,0.3,0,0.4-0.1c0.1-0.1,0.1-0.2,0.1-0.2c0-0.1-0.1-0.2-0.2-0.3c-0.2-0.1-0.4-0.2-0.6-0.2c-0.1,0-0.3-0.1-0.4-0.1
			c-0.1,0-0.2-0.1-0.3-0.2c-0.1-0.1-0.2-0.2-0.2-0.3c-0.1-0.1-0.1-0.3-0.1-0.4c0-0.3,0.1-0.5,0.3-0.7c0.2-0.2,0.5-0.3,0.8-0.3
			c0.2,0,0.5,0.1,0.7,0.2c0.2,0.1,0.4,0.3,0.5,0.5l-0.5,0.3c-0.1-0.3-0.4-0.4-0.6-0.4c-0.1,0-0.2,0-0.3,0.1
			c-0.1,0.1-0.1,0.1-0.1,0.2c0,0.1,0,0.2,0.1,0.3c0.2,0.1,0.3,0.2,0.5,0.2l0.2,0.1c0.1,0,0.1,0,0.2,0.1c0.1,0,0.1,0.1,0.2,0.1
			c0.1,0,0.1,0.1,0.2,0.1c0.1,0,0.1,0.1,0.1,0.2c0.1,0.1,0.1,0.3,0.1,0.5c0,0.3-0.1,0.5-0.3,0.7C92.6,59,92.3,59.1,92,59.1"/>
		<path class="st5" d="M95.6,55.7h0.6V59h-0.6v-1.4h-1.2V59h-0.6v-3.3h0.6V57h1.2V55.7z"/>
		<path class="st5" d="M99.7,58.6c-0.7,0.7-1.8,0.7-2.4,0c-0.7-0.7-0.7-1.8,0-2.4c0.7-0.7,1.8-0.7,2.4,0c0.3,0.3,0.5,0.8,0.5,1.2
			C100.3,57.8,100.1,58.3,99.7,58.6 M97.8,58.2c0.4,0.4,1.1,0.4,1.5,0c0.4-0.4,0.4-1.1,0-1.6c-0.4-0.4-1.1-0.4-1.5,0
			C97.4,57,97.4,57.7,97.8,58.2"/>
		<path class="st5" d="M102.6,59l-0.7-1.1h-0.5V59h-0.6v-3.3h1.3c0.6,0,1.1,0.5,1.1,1.1c0,0,0,0,0,0c0,0.2-0.1,0.4-0.2,0.6
			c-0.1,0.2-0.3,0.3-0.5,0.4l0.7,1.2H102.6z M101.5,56.3v1h0.7c0.1,0,0.2-0.1,0.3-0.1c0.1-0.1,0.1-0.2,0.1-0.3c0-0.1,0-0.3-0.1-0.3
			c-0.1-0.1-0.2-0.1-0.3-0.1L101.5,56.3z"/>
		<path class="st5" d="M104.5,58.4h1.4V59h-2v-3.3h2v0.6h-1.4v0.7h1.2v0.6h-1.2L104.5,58.4z"/>
		<path class="st5" d="M109.4,59.1c-0.5,0-0.9-0.2-1.2-0.5c-0.6-0.7-0.6-1.8,0-2.4c0.3-0.3,0.8-0.5,1.2-0.5c0.3,0,0.6,0.1,0.8,0.2
			c0.2,0.1,0.4,0.3,0.6,0.6l-0.6,0.3c-0.1-0.1-0.2-0.3-0.3-0.3c-0.4-0.2-0.9-0.1-1.3,0.2c-0.4,0.4-0.4,1.1,0,1.6
			c0.2,0.2,0.5,0.3,0.8,0.3c0.2,0,0.4,0,0.5-0.1c0.1-0.1,0.3-0.2,0.3-0.3l0.6,0.3c-0.1,0.2-0.3,0.4-0.6,0.6
			C110,59,109.7,59.1,109.4,59.1"/>
		<path class="st5" d="M114.1,58.6c-0.7,0.7-1.8,0.7-2.4,0c-0.7-0.7-0.7-1.8,0-2.4c0.7-0.7,1.8-0.7,2.4,0c0.3,0.3,0.5,0.8,0.5,1.2
			C114.6,57.8,114.4,58.3,114.1,58.6 M112.1,58.2c0.4,0.4,1.1,0.4,1.5,0c0.4-0.4,0.4-1.1,0-1.6c-0.4-0.4-1.1-0.4-1.5,0
			C111.7,57,111.7,57.7,112.1,58.2"/>
		<path class="st5" d="M118.4,55.7V59h-0.6v-2.1l-0.9,1.5h-0.1l-0.9-1.5V59h-0.6v-3.3h0.7l0.9,1.6l0.9-1.6L118.4,55.7z"/>
		<path class="st5" d="M122.4,55.7V59h-0.6v-2.1l-0.9,1.5h-0.1l-0.9-1.5V59h-0.6v-3.3h0.7l0.9,1.6l0.9-1.6L122.4,55.7z"/>
		<path class="st5" d="M125.9,58.6c-0.7,0.7-1.8,0.7-2.4,0c-0.7-0.7-0.7-1.8,0-2.4c0.7-0.7,1.8-0.7,2.4,0c0.3,0.3,0.5,0.8,0.5,1.2
			C126.4,57.8,126.2,58.3,125.9,58.6 M123.9,58.2c0.4,0.4,1.1,0.4,1.5,0c0.4-0.4,0.4-1.1,0-1.6c-0.4-0.4-1.1-0.4-1.5,0
			C123.5,57,123.5,57.7,123.9,58.2"/>
		<path class="st5" d="M128.9,55.7h0.6V59H129l-1.4-2v2H127v-3.3h0.5l1.4,2V55.7z"/>
		<path class="st5" d="M131.4,59.1c-0.3,0-0.6-0.1-0.8-0.2c-0.2-0.1-0.4-0.4-0.5-0.6l0.6-0.3c0.1,0.3,0.4,0.5,0.8,0.5
			c0.1,0,0.3,0,0.4-0.1c0.1-0.1,0.1-0.2,0.1-0.2c0-0.1-0.1-0.2-0.2-0.3c-0.2-0.1-0.4-0.2-0.6-0.2c-0.1,0-0.3-0.1-0.4-0.1
			c-0.1,0-0.2-0.1-0.3-0.2c-0.1-0.1-0.2-0.2-0.2-0.3c-0.1-0.1-0.1-0.3-0.1-0.4c0-0.3,0.1-0.5,0.3-0.7c0.2-0.2,0.5-0.3,0.8-0.3
			c0.2,0,0.5,0.1,0.7,0.2c0.2,0.1,0.4,0.3,0.5,0.5l-0.5,0.3c-0.1-0.3-0.4-0.4-0.6-0.4c-0.1,0-0.2,0-0.3,0.1
			c-0.1,0.1-0.1,0.1-0.1,0.2c0,0.1,0,0.2,0.1,0.3c0.2,0.1,0.3,0.2,0.5,0.2l0.2,0.1c0.1,0,0.1,0,0.2,0.1c0.1,0,0.1,0.1,0.2,0.1
			c0.1,0,0.1,0.1,0.2,0.1c0.1,0,0.1,0.1,0.1,0.2c0.1,0.1,0.1,0.3,0.1,0.5c0,0.3-0.1,0.5-0.3,0.7C132,59,131.7,59.1,131.4,59.1"/>
	</g>
</g>
<rect x="72" y="55.6" class="st4" width="61.2" height="3.9"/>
</svg>
