<svg xmlns="http://www.w3.org/2000/svg" width="12.18" height="12.18" viewBox="0 0 12.18 12.18"><path d="M12.18,10.733v3.045a.651.651,0,0,1-.653.653H8.483a.653.653,0,0,1-.462-1.115L9,12.331,6.09,9.417,3.175,12.334l.985.981A.653.653,0,0,1,3.7,14.43H.653A.651.651,0,0,1,0,13.778V10.733a.653.653,0,0,1,1.115-.462l.984.984L5.015,8.34,2.1,5.423l-.984.987A.653.653,0,0,1,0,5.948V2.9A.651.651,0,0,1,.653,2.25H3.7A.653.653,0,0,1,4.16,3.365l-.984.984L6.09,7.264,9.006,4.346l-.985-.981A.653.653,0,0,1,8.483,2.25h3.045a.651.651,0,0,1,.653.653V5.948a.653.653,0,0,1-1.115.462l-.984-.984L7.165,8.34l2.917,2.917.984-.984A.652.652,0,0,1,12.18,10.733Z" transform="translate(0 -2.25)" fill="#306d6f"/></svg>