<svg xmlns="http://www.w3.org/2000/svg" width="170.26" height="39.38"
     viewBox="0 0 170.26 39.38">
    <defs>
        <style>
            .cls-1 {
            fill: #000;
            }
            .cls-2 {
            fill: #ff7a14;
            }
            .cls-3 {
            fill: #ffcc27;
            }
            .cls-4 {
            fill: #ff4f0b;
            }
            .cls-5 {
            fill: #ffa61e;
            }
            .cls-6 {
            fill: #00a7fc;
            }
            .cls-7 {
            fill: #00ccfd;
            }
            .cls-8 {
            fill: #00e7fd;
            }
            .cls-9 {
            fill: #0079fb;
            }
        </style>
    </defs>


    <path id="path22659" class="cls-1"
          d="M16.5,32.88V11H12.68V20.2H3.82V11H0V32.88H3.82V24h8.85v8.86Z"></path>

    <path id="path22663" class="cls-1"
          d="M18.47,13.07a2.25,2.25,0,0,0,4.51,0,2.25,2.25,0,0,0-4.51,0m4.16,19.78H18.82V17.36h3.82Z"></path>

    <path id="path22683" class="cls-1"
          d="M32.57,20.33a12.89,12.89,0,0,1,2.46.23v8.25a4.93,4.93,0,0,1-4.85.28,3.68,3.68,0,0,1-1.6-2.93,5.94,5.94,0,0,1,1.08-4.6,3.68,3.68,0,0,1,2.91-1.24m-.22-3.23a7.71,7.71,0,0,0-6.53,3.34,9.77,9.77,0,0,0-1,7A6.45,6.45,0,0,0,28,32,7.93,7.93,0,0,0,35,32a4.58,4.58,0,0,1-.81,3.27,4,4,0,0,1-3.51.7,6.38,6.38,0,0,1-1.54-.48c-.24,1.07-.51,2.16-.72,3.21a10.07,10.07,0,0,0,7.27,0A5.78,5.78,0,0,0,38.79,34c.19-1.79,0-3.59.08-5.39,0-3.53,0-7.06,0-10.58a24.49,24.49,0,0,0-6.53-.88Z"></path>

    <path id="path22667" class="cls-1"
          d="M40.91,10.94V32.85h3.82V25a4,4,0,0,1,3.82-4.23c2,0,3.51,1.19,3.51,4v8.11h3.82V24.71c0-4.54-1.94-7.51-6.32-7.51a5.7,5.7,0,0,0-4.82,2.32V10.94Z"></path>

    <path id="path22687" class="cls-1"
          d="M64.39,11.51a6.32,6.32,0,0,0-5,2,7.49,7.49,0,0,0-1.46,5.16c0,4.72,0,9.44,0,14.15h3.84V22.51h4.65l.91-3.23H61.76c0-1.2-.1-2.56.69-3.56a3.65,3.65,0,0,1,3.29-.87,6.41,6.41,0,0,1,1.86.53l.74-3.2a11.63,11.63,0,0,0-4-.67Z"></path>

    <path id="path22671" class="cls-1"
          d="M75.59,20.58a4.36,4.36,0,0,1,4.19,4.57c0,2.35-1.41,4.54-4.19,4.54s-4.19-2.19-4.19-4.54,1.44-4.57,4.19-4.57m0-3.48a7.72,7.72,0,0,0-8,8,8,8,0,1,0,16.06,0,7.8,7.8,0,0,0-8.08-8"></path>

    <path id="path22675" class="cls-1"
          d="M85.1,17.42V32.85h3.82V24.71a3.56,3.56,0,0,1,3.85-3.91,3.82,3.82,0,0,1,2.75,1l1.72-3.32a5.86,5.86,0,0,0-4-1.47,4.55,4.55,0,0,0-4.35,2.19l-.28-1.78Z"></path>

    <path id="path22679" class="cls-1"
          d="M111.64,32.85V24.59c0-2,1.28-3.82,3.35-3.82s2.91,1.72,2.91,3.76v8.33h3.82V24.53c0-4.63-2.16-7.33-6.54-7.33A5.59,5.59,0,0,0,110,20a4.62,4.62,0,0,0-4.57-2.88,4.47,4.47,0,0,0-4.07,2.13l-.28-1.88H97.55V32.85h3.82V24.59c0-2,1.22-3.88,3.29-3.88s3.16,1.85,3.16,3.88v8.26Z"></path>


    <path id="path5212" class="cls-2"
          d="M159.31,25.25v7.6h7.3v-7.6Z"></path>
    <path id="path5214" class="cls-3"
          d="M166.27,18.24l-3.34,0,0,3.61h7.3l-3.65-3.65h-.34Z"></path>
    <polygon id="polygon5216" class="cls-4"
             points="166.61 25.55 159.31 32.85 166.61 32.85 166.61 25.55"></polygon>
    <polygon id="polygon5218" class="cls-2"
             points="166.61 25.55 159.31 25.55 159.31 32.85 166.61 25.55"></polygon>
    <path id="path5220" class="cls-5"
          d="M159.31,11v7.3h0v7.33h7.29V18.25h0l-7.3-7.3h0Z"></path>
    <polygon id="polygon5222" class="cls-3"
             points="166.61 18.25 159.31 18.25 159.31 25.55 166.61 18.25"></polygon>
    <polygon id="polygon5224" class="cls-5"
             points="166.61 18.25 159.31 25.55 166.61 25.55 166.61 18.25"></polygon>
    <path id="path5226" class="cls-6"
          d="M144.71,25.55v7.3H152v-7.3Z"></path>
    <path id="path5228" class="cls-2"
          d="M130.14,24.28l0,1.27h0v7.3l.09-.09h7.13l.06-7.18v0h0l-.07-1.27h-7.19Z"></path>
    <path id="path5230" class="cls-5"
          d="M137.41,11Zm0,0-7.3,7.3h0l0,0,0,0-3.65,3.65h3.73v3.54l.13-.09-.2.2h7.3v-7.3l0,0v0h0V11h0Z"></path>
    <polygon id="polygon5232" class="cls-3"
             points="130.11 18.25 130.11 25.55 137.41 18.25 130.11 18.25"></polygon>
    <path id="path5234" class="cls-7"
          d="M152,3.65,149.26.87l-9.72,10.07h5.16v7.3H152l0-7.29h7.3L152,3.65Z"></path>
    <path id="path5236" class="cls-7"
          d="M152,11l-7.24,7.24H152v-7L152,11Z"></path>
    <polygon id="polygon5238" class="cls-6"
             points="144.71 18.25 152.01 18.25 152.01 10.95 144.71 18.25"></polygon>
    <polygon id="polygon5240" class="cls-6"
             points="144.71 25.55 144.71 32.85 152.01 25.55 144.71 25.55"></polygon>
    <path id="path5242" class="cls-8"
          d="M148.36,0l-3.65,3.65-7.3,7.3h7.3l7.3-7.3Z"></path>
    <polygon id="polygon5244" class="cls-4"
             points="130.11 32.85 137.41 32.85 137.41 25.55 130.11 32.85"></polygon>
    <polygon id="polygon5246" class="cls-9"
             points="144.71 32.85 152.01 32.85 152.01 25.55 144.71 32.85"></polygon>

</svg>