<svg xmlns="http://www.w3.org/2000/svg" xmlns:xlink="http://www.w3.org/1999/xlink" width="14.884" height="13.024" viewBox="0 0 14.884 13.024"><defs><clipPath id="a"><rect width="14.884" height="13.025" fill="#306d6f"/></clipPath></defs><g transform="translate(10)"><g transform="translate(-10 0)" clip-path="url(#a)"><path d="M14.186,6.513H2.326V2.326a.93.93,0,0,1,1.715-.5,1.978,1.978,0,0,0,.2,2.414.349.349,0,0,0,.014.478l.329.329a.35.35,0,0,0,.494,0h0L7.839,2.287a.349.349,0,0,0,0-.493h0L7.51,1.464a.349.349,0,0,0-.478-.014A1.973,1.973,0,0,0,5.167,1,2.325,2.325,0,0,0,.93,2.326V6.512H.7a.7.7,0,0,0-.7.7v.466a.7.7,0,0,0,.7.7H.931V9.3a2.785,2.785,0,0,0,.93,2.08v.944a.7.7,0,0,0,.7.7h.466a.7.7,0,0,0,.7-.7v-.232h7.441v.232a.7.7,0,0,0,.7.7h.466a.7.7,0,0,0,.7-.7v-.943a2.785,2.785,0,0,0,.93-2.08V8.373h.232a.7.7,0,0,0,.7-.7V7.212a.7.7,0,0,0-.7-.7h0" transform="translate(0 0)" fill="#306d6f"/></g></g></svg>