<svg xmlns="http://www.w3.org/2000/svg" xmlns:xlink="http://www.w3.org/1999/xlink" width="14.884" height="11.695" viewBox="0 0 14.884 11.695"><defs><clipPath id="a"><rect width="14.884" height="11.695" fill="#306d6f"/></clipPath></defs><g transform="translate(0 0)"><g transform="translate(0 0)" clip-path="url(#a)"><path d="M14.16,6.448h-.013a.725.725,0,0,0-.724.724.074.074,0,0,1-.073.073H1.535a.073.073,0,0,1-.073-.073.725.725,0,0,0-.724-.724H.724A.725.725,0,0,0,0,7.172v5.994a.725.725,0,0,0,.724.724H.737a.725.725,0,0,0,.724-.724V12.96a.134.134,0,0,1,.133-.133H13.289a.134.134,0,0,1,.133.133v.206a.725.725,0,0,0,.724.724h.013a.725.725,0,0,0,.724-.724V7.172a.725.725,0,0,0-.724-.724" transform="translate(0 -2.195)" fill="#306d6f"/><path d="M2.482,4.452h.747a.134.134,0,0,0,.133-.133V3.887a.533.533,0,0,1,.532-.532h3.24a.533.533,0,0,1,.532.532v.432a.133.133,0,0,0,.133.133h.8a.134.134,0,0,0,.133-.133V3.887a.532.532,0,0,1,.531-.532H12.5a.533.533,0,0,1,.532.532v.432a.133.133,0,0,0,.133.133h.747a.266.266,0,0,0,.266-.266V1.063A1.067,1.067,0,0,0,13.114,0H3.279A1.067,1.067,0,0,0,2.216,1.063V4.186a.267.267,0,0,0,.266.266" transform="translate(-0.754 0)" fill="#306d6f"/></g></g></svg>