<svg xmlns="http://www.w3.org/2000/svg" width="830.036" height="246.847" viewBox="0 0 830.036 246.847"><g transform="translate(-820 -7676.5)"><g transform="translate(-342.128 296.395)" opacity="0.147"><g transform="translate(1162.128 7380.105)"><path d="M34.585,0C53.685,0,69.17,12.726,69.17,28.423H0C0,12.726,15.484,0,34.585,0Z" fill="#7ccecd"/><path d="M34.585,0C53.685,0,69.17,12.726,69.17,28.423H0C0,12.726,15.484,0,34.585,0Z" transform="translate(138.339)" fill="#7ccecd"/><path d="M34.585,0C53.685,0,69.17,12.726,69.17,28.423H0C0,12.726,15.484,0,34.585,0Z" transform="translate(276.679)" fill="#7ccecd"/><path d="M34.585,0C53.685,0,69.17,12.726,69.17,28.423H0C0,12.726,15.484,0,34.585,0Z" transform="translate(138.339 56.847) rotate(180)" fill="#7ccecd"/><path d="M34.585,0C53.685,0,69.17,12.726,69.17,28.423H0C0,12.726,15.484,0,34.585,0Z" transform="translate(276.679 56.847) rotate(180)" fill="#7ccecd"/><path d="M34.585,0C53.685,0,69.17,12.726,69.17,28.423H0C0,12.726,15.484,0,34.585,0Z" transform="translate(415.018 56.847) rotate(180)" fill="#7ccecd"/></g><g transform="translate(1577.146 7380.105)"><path d="M34.585,0C53.685,0,69.17,12.726,69.17,28.423H0C0,12.726,15.484,0,34.585,0Z" fill="#7ccecd"/><path d="M34.585,0C53.685,0,69.17,12.726,69.17,28.423H0C0,12.726,15.484,0,34.585,0Z" transform="translate(138.339)" fill="#7ccecd"/><path d="M34.585,0C53.685,0,69.17,12.726,69.17,28.423H0C0,12.726,15.484,0,34.585,0Z" transform="translate(276.679)" fill="#7ccecd"/><path d="M34.585,0C53.685,0,69.17,12.726,69.17,28.423H0C0,12.726,15.484,0,34.585,0Z" transform="translate(138.339 56.847) rotate(180)" fill="#7ccecd"/><path d="M34.585,0C53.685,0,69.17,12.726,69.17,28.423H0C0,12.726,15.484,0,34.585,0Z" transform="translate(276.679 56.847) rotate(180)" fill="#7ccecd"/><path d="M34.585,0C53.685,0,69.17,12.726,69.17,28.423H0C0,12.726,15.484,0,34.585,0Z" transform="translate(415.018 56.847) rotate(180)" fill="#7ccecd"/></g></g><g transform="translate(-342.128 383.395)" opacity="0.147"><g transform="translate(1162.128 7380.105)"><path d="M34.585,0C53.685,0,69.17,12.726,69.17,28.423H0C0,12.726,15.484,0,34.585,0Z" fill="#7ccecd"/><path d="M34.585,0C53.685,0,69.17,12.726,69.17,28.423H0C0,12.726,15.484,0,34.585,0Z" transform="translate(138.339)" fill="#7ccecd"/><path d="M34.585,0C53.685,0,69.17,12.726,69.17,28.423H0C0,12.726,15.484,0,34.585,0Z" transform="translate(276.679)" fill="#7ccecd"/><path d="M34.585,0C53.685,0,69.17,12.726,69.17,28.423H0C0,12.726,15.484,0,34.585,0Z" transform="translate(138.339 56.847) rotate(180)" fill="#7ccecd"/><path d="M34.585,0C53.685,0,69.17,12.726,69.17,28.423H0C0,12.726,15.484,0,34.585,0Z" transform="translate(276.679 56.847) rotate(180)" fill="#7ccecd"/><path d="M34.585,0C53.685,0,69.17,12.726,69.17,28.423H0C0,12.726,15.484,0,34.585,0Z" transform="translate(415.018 56.847) rotate(180)" fill="#7ccecd"/></g><g transform="translate(1577.146 7380.105)"><path d="M34.585,0C53.685,0,69.17,12.726,69.17,28.423H0C0,12.726,15.484,0,34.585,0Z" fill="#7ccecd"/><path d="M34.585,0C53.685,0,69.17,12.726,69.17,28.423H0C0,12.726,15.484,0,34.585,0Z" transform="translate(138.339)" fill="#7ccecd"/><path d="M34.585,0C53.685,0,69.17,12.726,69.17,28.423H0C0,12.726,15.484,0,34.585,0Z" transform="translate(276.679)" fill="#7ccecd"/><path d="M34.585,0C53.685,0,69.17,12.726,69.17,28.423H0C0,12.726,15.484,0,34.585,0Z" transform="translate(138.339 56.847) rotate(180)" fill="#7ccecd"/><path d="M34.585,0C53.685,0,69.17,12.726,69.17,28.423H0C0,12.726,15.484,0,34.585,0Z" transform="translate(276.679 56.847) rotate(180)" fill="#7ccecd"/><path d="M34.585,0C53.685,0,69.17,12.726,69.17,28.423H0C0,12.726,15.484,0,34.585,0Z" transform="translate(415.018 56.847) rotate(180)" fill="#7ccecd"/></g></g><g transform="translate(-342.128 486.395)" opacity="0.147"><g transform="translate(1162.128 7380.105)"><path d="M34.585,0C53.685,0,69.17,12.726,69.17,28.423H0C0,12.726,15.484,0,34.585,0Z" fill="#7ccecd"/><path d="M34.585,0C53.685,0,69.17,12.726,69.17,28.423H0C0,12.726,15.484,0,34.585,0Z" transform="translate(138.339)" fill="#7ccecd"/><path d="M34.585,0C53.685,0,69.17,12.726,69.17,28.423H0C0,12.726,15.484,0,34.585,0Z" transform="translate(276.679)" fill="#7ccecd"/><path d="M34.585,0C53.685,0,69.17,12.726,69.17,28.423H0C0,12.726,15.484,0,34.585,0Z" transform="translate(138.339 56.847) rotate(180)" fill="#7ccecd"/><path d="M34.585,0C53.685,0,69.17,12.726,69.17,28.423H0C0,12.726,15.484,0,34.585,0Z" transform="translate(276.679 56.847) rotate(180)" fill="#7ccecd"/><path d="M34.585,0C53.685,0,69.17,12.726,69.17,28.423H0C0,12.726,15.484,0,34.585,0Z" transform="translate(415.018 56.847) rotate(180)" fill="#7ccecd"/></g><g transform="translate(1577.146 7380.105)"><path d="M34.585,0C53.685,0,69.17,12.726,69.17,28.423H0C0,12.726,15.484,0,34.585,0Z" fill="#7ccecd"/><path d="M34.585,0C53.685,0,69.17,12.726,69.17,28.423H0C0,12.726,15.484,0,34.585,0Z" transform="translate(138.339)" fill="#7ccecd"/><path d="M34.585,0C53.685,0,69.17,12.726,69.17,28.423H0C0,12.726,15.484,0,34.585,0Z" transform="translate(276.679)" fill="#7ccecd"/><path d="M34.585,0C53.685,0,69.17,12.726,69.17,28.423H0C0,12.726,15.484,0,34.585,0Z" transform="translate(138.339 56.847) rotate(180)" fill="#7ccecd"/><path d="M34.585,0C53.685,0,69.17,12.726,69.17,28.423H0C0,12.726,15.484,0,34.585,0Z" transform="translate(276.679 56.847) rotate(180)" fill="#7ccecd"/><path d="M34.585,0C53.685,0,69.17,12.726,69.17,28.423H0C0,12.726,15.484,0,34.585,0Z" transform="translate(415.018 56.847) rotate(180)" fill="#7ccecd"/></g></g></g></svg>