<svg xmlns="http://www.w3.org/2000/svg" xmlns:xlink="http://www.w3.org/1999/xlink" width="97.399" height="53.87" viewBox="0 0 97.399 53.87"><defs><clipPath id="a"><rect width="97.399" height="53.87" fill="#fff"/></clipPath></defs><g clip-path="url(#a)"><path d="M248.347,86.619a6.371,6.371,0,0,1-3.566-.947,5.064,5.064,0,0,1-2.037-2.577l2.4-1.406a3.2,3.2,0,0,0,3.28,2.18,2.824,2.824,0,0,0,1.732-.428,1.346,1.346,0,0,0-.122-2.251,10.376,10.376,0,0,0-2.4-.907,14.836,14.836,0,0,1-1.62-.57,6.989,6.989,0,0,1-1.325-.764,3.118,3.118,0,0,1-1.008-1.212,3.968,3.968,0,0,1-.346-1.711,3.819,3.819,0,0,1,1.375-3.087,4.988,4.988,0,0,1,3.311-1.151,5.509,5.509,0,0,1,3.046.845,5.679,5.679,0,0,1,2.047,2.353l-2.363,1.365a2.847,2.847,0,0,0-2.73-1.833,2.151,2.151,0,0,0-1.376.4,1.254,1.254,0,0,0-.5,1.029,1.3,1.3,0,0,0,.56,1.09,7.834,7.834,0,0,0,2.15.907q.651.2.988.316t.917.346a5.589,5.589,0,0,1,.9.438,7.148,7.148,0,0,1,.723.55A2.819,2.819,0,0,1,253,80.3a4.073,4.073,0,0,1,.52,2.017,3.822,3.822,0,0,1-1.436,3.137,5.761,5.761,0,0,1-3.738,1.161" transform="translate(-171.101 -50.601)" fill="#fff"/><path d="M248.347,86.619a6.371,6.371,0,0,1-3.566-.947,5.064,5.064,0,0,1-2.037-2.577l2.4-1.406a3.2,3.2,0,0,0,3.28,2.18,2.824,2.824,0,0,0,1.732-.428,1.346,1.346,0,0,0-.122-2.251,10.376,10.376,0,0,0-2.4-.907,14.836,14.836,0,0,1-1.62-.57,6.989,6.989,0,0,1-1.325-.764,3.118,3.118,0,0,1-1.008-1.212,3.968,3.968,0,0,1-.346-1.711,3.819,3.819,0,0,1,1.375-3.087,4.988,4.988,0,0,1,3.311-1.151,5.509,5.509,0,0,1,3.046.845,5.679,5.679,0,0,1,2.047,2.353l-2.363,1.365a2.847,2.847,0,0,0-2.73-1.833,2.151,2.151,0,0,0-1.376.4,1.254,1.254,0,0,0-.5,1.029,1.3,1.3,0,0,0,.56,1.09,7.834,7.834,0,0,0,2.15.907q.651.2.988.316t.917.346a5.589,5.589,0,0,1,.9.438,7.148,7.148,0,0,1,.723.55A2.819,2.819,0,0,1,253,80.3a4.073,4.073,0,0,1,.52,2.017,3.822,3.822,0,0,1-1.436,3.137A5.761,5.761,0,0,1,248.347,86.619Z" transform="translate(-171.101 -50.601)" fill="#fff" stroke="#265b5c" stroke-miterlimit="10" stroke-width="1"/><path d="M304.456,72.755v2.689h-3.85V87.016h-2.811V75.444h-3.83V72.755Z" transform="translate(-207.204 -51.282)" fill="#fff"/><path d="M304.456,72.755v2.689h-3.85V87.016h-2.811V75.444h-3.83V72.755Z" transform="translate(-207.204 -51.282)" fill="#fff" stroke="#265b5c" stroke-miterlimit="10" stroke-width="1"/><path d="M21.854,48.823A16.3,16.3,0,0,1,49.771,37.377l2.742-2.44A19.978,19.978,0,1,0,38.166,68.809H56.131a25.334,25.334,0,0,0,3-2.755c.278-.3.546-.608.808-.919H38.166A16.33,16.33,0,0,1,21.854,48.823" transform="translate(-12.814 -20.326)" fill="#fff"/><path d="M39.233,60.8A10.912,10.912,0,0,1,57.72,52.927l3.022-2.689a14.97,14.97,0,1,0-10.605,25.53H72.968a25.189,25.189,0,0,0,2.426-4.048H50.158A10.938,10.938,0,0,1,39.233,60.8" transform="translate(-24.785 -32.298)" fill="#fff"/><path d="M4.027,35.957A21.3,21.3,0,0,1,40.7,21.181l3.038-2.7A25.364,25.364,0,1,0,25.373,61.33h2.34a25.4,25.4,0,0,0,13.715-4.048H25.351A21.349,21.349,0,0,1,4.027,35.957" transform="translate(0 -7.46)" fill="#fff"/><path d="M71.777,82.935a3.975,3.975,0,0,1-.581.394,4.532,4.532,0,0,1-2.211.54,4.473,4.473,0,0,1-3.351-1.3,5.1,5.1,0,0,1,0-6.743,4.88,4.88,0,0,1,5.552-.764,4.012,4.012,0,0,1,.487.319l2.082-1.853a7.065,7.065,0,0,0-1.194-.829,7.275,7.275,0,0,0-3.576-.906,7.152,7.152,0,0,0-5.317,2.129,7.7,7.7,0,0,0,0,10.563,7.134,7.134,0,0,0,5.317,2.139,7.248,7.248,0,0,0,3.586-.907,6.975,6.975,0,0,0,1.292-.923Z" transform="translate(-43.398 -50.601)" fill="#fff"/><path d="M71.777,82.935a3.975,3.975,0,0,1-.581.394,4.532,4.532,0,0,1-2.211.54,4.473,4.473,0,0,1-3.351-1.3,5.1,5.1,0,0,1,0-6.743,4.88,4.88,0,0,1,5.552-.764,4.012,4.012,0,0,1,.487.319l2.082-1.853a7.065,7.065,0,0,0-1.194-.829,7.275,7.275,0,0,0-3.576-.906,7.152,7.152,0,0,0-5.317,2.129,7.7,7.7,0,0,0,0,10.563,7.134,7.134,0,0,0,5.317,2.139,7.248,7.248,0,0,0,3.586-.907,6.975,6.975,0,0,0,1.292-.923Z" transform="translate(-43.398 -50.601)" fill="#fff" stroke="#265b5c" stroke-miterlimit="10" stroke-width="1"/><path d="M4.048,0H0V20.1a26.687,26.687,0,0,1,4.049-7.694Z" fill="#fff"/><path d="M39.284,0H35.236V6.37a26.7,26.7,0,0,1,4.048-2.262Z" transform="translate(-24.837)" fill="#fff"/><path d="M21.927,7.342V0H18.253V10.774a26.957,26.957,0,0,1,3.673-3.432" transform="translate(-12.866)" fill="#fff"/><path d="M122.231,172.857h61.177v-4.048H130.085l-1.769,1.138a26.9,26.9,0,0,1-6.085,2.911" transform="translate(-86.156 -118.987)" fill="#fff"/><path d="M171.146,133.574l-.279.584a26.638,26.638,0,0,1-1.987,3.45h.192l-.012.014h47.229v-4.048Z" transform="translate(-119.037 -94.151)" fill="#fff"/><path d="M156.68,152.7c-.314.373-.584.68-.85.967-.589.635-1.217,1.241-1.872,1.821h.594l-.022.014h51.241v-3.673H157.414Z" transform="translate(-108.519 -107.017)" fill="#fff"/><path d="M192.726,87.015l-.907-2.567h-5.858l-.856,2.567H182.07l4.991-14.261h3.484l5.031,14.261Zm-5.849-5.2h4.014l-2.058-5.827Z" transform="translate(-128.334 -51.282)" fill="#fff"/><path d="M192.726,87.015l-.907-2.567h-5.858l-.856,2.567H182.07l4.991-14.261h3.484l5.031,14.261Zm-5.849-5.2h4.014l-2.058-5.827Z" transform="translate(-128.334 -51.282)" fill="#fff" stroke="#265b5c" stroke-miterlimit="10" stroke-width="1"/><path d="M130.108,84.47a7.5,7.5,0,1,1,2.159-5.266,7.171,7.171,0,0,1-2.159,5.266m-8.537-1.915a4.75,4.75,0,0,0,6.56,0,4.916,4.916,0,0,0,0-6.713,4.725,4.725,0,0,0-6.56,0,4.916,4.916,0,0,0,0,6.713" transform="translate(-82.79 -50.601)" fill="#fff"/><path d="M130.108,84.47a7.5,7.5,0,1,1,2.159-5.266A7.171,7.171,0,0,1,130.108,84.47Zm-8.537-1.915a4.75,4.75,0,0,0,6.56,0,4.916,4.916,0,0,0,0-6.713,4.725,4.725,0,0,0-6.56,0,4.916,4.916,0,0,0,0,6.713Z" transform="translate(-82.79 -50.601)" fill="#fff" stroke="#265b5c" stroke-miterlimit="10" stroke-width="1"/><path d="M177.955,138.659l-.151-.428h-.976l-.142.428h-.506l.832-2.376h.58l.838,2.376Zm-.975-.866h.669l-.343-.971Z" transform="translate(-124.182 -96.061)" fill="#fff"/><path d="M185.493,136.283v.448h-.642v1.928h-.468v-1.928h-.638v-.448Z" transform="translate(-129.515 -96.061)" fill="#fff"/><path d="M194.586,138.21h.906v.448h-1.375v-2.376h.469Z" transform="translate(-136.826 -96.061)" fill="#fff"/><path d="M201.3,138.659l-.151-.428h-.976l-.142.428h-.506l.832-2.376h.58l.838,2.376Zm-.975-.866h.669l-.343-.971Z" transform="translate(-140.637 -96.061)" fill="#fff"/><path d="M210.131,138.658h-.54l-.849-1.113v1.113h-.469v-2.376h.469v1.047l.815-1.047h.54l-.879,1.154Z" transform="translate(-146.805 -96.06)" fill="#fff"/><path d="M216.16,138.21h1v.448h-1.47v-2.376h1.453v.448h-.984v.506h.9v.441h-.9Z" transform="translate(-152.033 -96.061)" fill="#fff"/><path d="M222.651,138.592a1.062,1.062,0,0,1-.594-.158.841.841,0,0,1-.339-.429l.4-.234a.534.534,0,0,0,.547.363.473.473,0,0,0,.288-.071.22.22,0,0,0,.092-.18.218.218,0,0,0-.112-.2,1.7,1.7,0,0,0-.4-.151,2.68,2.68,0,0,1-.27-.095,1.173,1.173,0,0,1-.221-.128.519.519,0,0,1-.168-.2.661.661,0,0,1-.058-.285.637.637,0,0,1,.229-.514.834.834,0,0,1,.551-.192.919.919,0,0,1,.508.14.95.95,0,0,1,.341.393l-.394.227a.474.474,0,0,0-.455-.305.355.355,0,0,0-.229.066.208.208,0,0,0-.083.171.216.216,0,0,0,.093.182,1.317,1.317,0,0,0,.358.151l.165.053c.037.012.089.032.153.058a.935.935,0,0,1,.15.073,1.218,1.218,0,0,1,.12.092.463.463,0,0,1,.1.119.678.678,0,0,1,.086.336.638.638,0,0,1-.239.523.962.962,0,0,1-.623.193" transform="translate(-156.281 -95.947)" fill="#fff"/><path d="M230.474,136.283h.465v2.376h-.465v-.984h-.882v.984h-.469v-2.376h.469v.943h.882Z" transform="translate(-161.5 -96.061)" fill="#fff"/><path d="M238.857,138.235a1.25,1.25,0,1,1,.36-.877,1.193,1.193,0,0,1-.36.877m-1.422-.319a.791.791,0,0,0,1.093,0,.818.818,0,0,0,0-1.118.787.787,0,0,0-1.093,0,.819.819,0,0,0,0,1.118" transform="translate(-166.876 -95.947)" fill="#fff"/><path d="M247.871,138.659l-.48-.825h-.354v.825h-.469v-2.376h.951a.787.787,0,0,1,.791.787.723.723,0,0,1-.125.409.788.788,0,0,1-.333.283l.526.9Zm-.835-1.938v.7h.482a.3.3,0,0,0,.227-.1.356.356,0,0,0,.1-.249.35.35,0,0,0-.1-.248.3.3,0,0,0-.227-.1Z" transform="translate(-173.797 -96.061)" fill="#fff"/><path d="M254.442,138.21h1v.448h-1.47v-2.376h1.453v.448h-.984v.506h.9v.441h-.9Z" transform="translate(-179.016 -96.061)" fill="#fff"/><path d="M264.5,138.592a1.188,1.188,0,0,1-.886-.357,1.282,1.282,0,0,1,0-1.76,1.191,1.191,0,0,1,.886-.354,1.212,1.212,0,0,1,.6.151,1.1,1.1,0,0,1,.426.409l-.4.234a.627.627,0,0,0-.251-.249.813.813,0,0,0-.925.127.851.851,0,0,0,0,1.124.745.745,0,0,0,.558.217.756.756,0,0,0,.368-.089.615.615,0,0,0,.249-.246l.4.235a1.112,1.112,0,0,1-.424.408,1.209,1.209,0,0,1-.6.151" transform="translate(-185.567 -95.947)" fill="#fff"/><path d="M273.9,138.235a1.25,1.25,0,1,1,.36-.877,1.193,1.193,0,0,1-.36.877m-1.422-.319a.791.791,0,0,0,1.093,0,.818.818,0,0,0,0-1.118.787.787,0,0,0-1.093,0,.819.819,0,0,0,0,1.118" transform="translate(-191.573 -95.947)" fill="#fff"/><path d="M283.932,136.283v2.376h-.465v-1.541l-.67,1.1-.054,0-.667-1.1v1.535h-.469v-2.376h.482l.681,1.122.678-1.122Z" transform="translate(-198.494 -96.061)" fill="#fff"/><path d="M293.648,136.283v2.376h-.465v-1.541l-.67,1.1-.054,0-.667-1.1v1.535h-.469v-2.376h.482l.681,1.122.678-1.122Z" transform="translate(-205.343 -96.061)" fill="#fff"/><path d="M302.783,138.235a1.249,1.249,0,1,1,.36-.877,1.193,1.193,0,0,1-.36.877m-1.422-.319a.791.791,0,0,0,1.093,0,.818.818,0,0,0,0-1.118.787.787,0,0,0-1.093,0,.819.819,0,0,0,0,1.118" transform="translate(-211.935 -95.947)" fill="#fff"/><path d="M311.869,136.283h.468v2.376h-.357l-1.018-1.453v1.453h-.469v-2.376h.356l1.018,1.447Z" transform="translate(-218.856 -96.061)" fill="#fff"/><path d="M318.971,138.592a1.062,1.062,0,0,1-.594-.158.841.841,0,0,1-.339-.429l.4-.234a.534.534,0,0,0,.547.363.473.473,0,0,0,.288-.071.22.22,0,0,0,.092-.18.218.218,0,0,0-.112-.2,1.7,1.7,0,0,0-.4-.151,2.684,2.684,0,0,1-.27-.095,1.172,1.172,0,0,1-.221-.128.519.519,0,0,1-.168-.2.661.661,0,0,1-.058-.285.637.637,0,0,1,.229-.514.833.833,0,0,1,.551-.192.919.919,0,0,1,.508.14.951.951,0,0,1,.341.393l-.394.227a.474.474,0,0,0-.455-.305.355.355,0,0,0-.229.066.208.208,0,0,0-.083.171.216.216,0,0,0,.093.182,1.317,1.317,0,0,0,.358.151l.165.053c.037.012.089.032.153.058a.935.935,0,0,1,.15.073,1.218,1.218,0,0,1,.12.092.462.462,0,0,1,.1.119.678.678,0,0,1,.086.336.638.638,0,0,1-.239.523.962.962,0,0,1-.623.193" transform="translate(-224.173 -95.947)" fill="#fff"/></g></svg>